<svg width="31" height="31" viewBox="0 0 31 31" fill="none" xmlns="http://www.w3.org/2000/svg">
<rect x="0.5" y="0.5" width="30" height="30" rx="15" stroke="#F5F7FA"/>
<path d="M19.3346 7.75H12.6654C9.95505 7.75 7.75 9.95505 7.75 12.6654V19.3346C7.75 22.0449 9.95505 24.25 12.6654 24.25H19.3346C22.0449 24.25 24.25 22.0449 24.25 19.3346V12.6654C24.25 9.95505 22.0449 7.75 19.3346 7.75ZM22.5901 19.3346C22.5901 21.1325 21.1325 22.5901 19.3346 22.5901H12.6654C10.8675 22.5901 9.4099 21.1325 9.4099 19.3346V12.6654C9.4099 10.8674 10.8675 9.4099 12.6654 9.4099H19.3346C21.1325 9.4099 22.5901 10.8674 22.5901 12.6654V19.3346Z" fill="#F5F7FA"/>
<path d="M15.9999 11.7324C13.6468 11.7324 11.7324 13.6468 11.7324 15.9999C11.7324 18.3529 13.6468 20.2674 15.9999 20.2674C18.353 20.2674 20.2674 18.353 20.2674 15.9999C20.2674 13.6468 18.353 11.7324 15.9999 11.7324ZM15.9999 18.6075C14.5598 18.6075 13.3923 17.44 13.3923 15.9999C13.3923 14.5598 14.5598 13.3923 15.9999 13.3923C17.4401 13.3923 18.6075 14.5598 18.6075 15.9999C18.6075 17.44 17.44 18.6075 15.9999 18.6075Z" fill="#F5F7FA"/>
<path d="M20.2758 12.7871C20.8405 12.7871 21.2983 12.3293 21.2983 11.7645C21.2983 11.1998 20.8405 10.7419 20.2758 10.7419C19.711 10.7419 19.2532 11.1998 19.2532 11.7645C19.2532 12.3293 19.711 12.7871 20.2758 12.7871Z" fill="#F5F7FA"/>
</svg>
