<svg width="31" height="31" viewBox="0 0 31 31" fill="none" xmlns="http://www.w3.org/2000/svg">
<rect x="0.5" y="0.5" width="30" height="30" rx="15" stroke="#F5F7FA"/>
<path d="M21.8258 13.0126C21.8351 13.1429 21.8351 13.2732 21.8351 13.4035C21.8351 17.3773 18.8106 21.956 13.2827 21.956C11.5796 21.956 9.99755 21.4627 8.66675 20.6066C8.90872 20.6345 9.14135 20.6438 9.39264 20.6438C10.7979 20.6438 12.0915 20.1692 13.1245 19.3596C11.803 19.3316 10.6955 18.4661 10.3139 17.2749C10.5001 17.3028 10.6862 17.3214 10.8817 17.3214C11.1515 17.3214 11.4214 17.2842 11.6727 17.2191C10.2954 16.9399 9.26233 15.7301 9.26233 14.269V14.2318C9.66248 14.4551 10.1278 14.5947 10.621 14.6133C9.81138 14.0735 9.28095 13.1522 9.28095 12.1099C9.28095 11.5516 9.42982 11.0397 9.69041 10.593C11.1701 12.417 13.3943 13.6082 15.8884 13.7385C15.8419 13.5152 15.8139 13.2825 15.8139 13.0499C15.8139 11.3933 17.1541 10.0439 18.8199 10.0439C19.6854 10.0439 20.4671 10.4069 21.0162 10.9932C21.6955 10.8629 22.3469 10.6116 22.9239 10.2673C22.7006 10.9653 22.226 11.5516 21.6025 11.9238C22.2074 11.8587 22.7937 11.6911 23.3334 11.4585C22.924 12.0541 22.4121 12.5845 21.8258 13.0126Z" fill="#F5F7FA"/>
</svg>
