<svg width="1133" height="840" viewBox="0 0 1133 840" fill="none" xmlns="http://www.w3.org/2000/svg">
<g clip-path="url(#clip0_65_2)">
<path opacity="0.1" d="M481.34 56.33C444.17 41.22 404.89 28.57 364.79 30.18C305.79 32.5 249.28 67.96 221.52 120.03C198 164.14 195.1 215.85 184.97 264.8C172.49 325.12 148.59 382.44 123.05 438.5C109.33 468.57 94.8601 499.37 92.6101 532.38C89.4801 578.2 111.39 623.87 145.74 654.38C180.09 684.89 225.74 700.94 271.51 704.45C295.88 706.32 321.34 704.59 342.99 693.25C365.89 681.25 382.58 659.56 405.57 647.74C426.88 636.74 451.8 635.24 475.72 636.67C507.051 638.545 537.924 645.104 567.31 656.13C600.74 668.69 631.83 686.87 665.19 699.6C698.55 712.33 735.82 719.44 769.92 708.81C801.92 698.81 827.26 674.61 850.09 650.06C887.562 609.764 921.738 566.525 952.29 520.76C972.88 489.92 992.04 457.38 1001.15 421.43C1018.55 352.71 994.6 275.17 941.46 228.23C897.46 189.35 838.37 172.47 780.54 162.23C727.81 152.89 666.84 152.31 618.3 127.97C572 104.72 529.88 76.07 481.34 56.33V56.33Z" fill="#18A0FB"/>
<path d="M871.19 120.27C856.91 120.84 856.19 157.71 857.08 159.32C857.97 160.93 853.84 177.57 853.84 177.57C853.84 177.57 847.36 202.8 848.11 207.49C848.86 212.18 844.62 215.25 844.62 215.25C838.28 217.75 830.33 225.81 828.22 228.02L827.69 228.59C827.69 228.59 821.55 232.59 820.47 234.17C819.39 235.75 816.47 234.49 816.47 234.49C816.47 234.49 808.17 233.69 807.09 234.01C806.35 234.23 805.19 232.87 804.53 232.01C804.22 231.6 804.02 231.29 804.02 231.29L803.77 223.85C803.458 223.612 803.123 223.404 802.77 223.23C802.94 222.39 803.15 221.52 803.41 220.63C807.141 218.81 810.289 215.984 812.5 212.47C812.74 212.09 812.96 211.7 813.17 211.31C813.723 211.694 814.388 211.88 815.06 211.84C815.355 211.848 815.651 211.821 815.94 211.76C816.872 211.508 817.743 211.069 818.5 210.47C820.564 209.077 822.21 207.148 823.26 204.89C823.444 204.459 823.595 204.014 823.71 203.56C823.56 203.81 823.4 204.06 823.24 204.3C823.632 203.245 823.787 202.118 823.696 200.996C823.604 199.875 823.268 198.787 822.71 197.81C821.93 196.55 820.71 195.53 820.21 194.13C819.37 191.72 820.96 189.23 821.94 186.87C822.888 184.723 823.197 182.348 822.83 180.03C822.634 178.869 822.205 177.759 821.569 176.767C820.933 175.776 820.104 174.923 819.13 174.26C815.2 171.71 809.87 173.11 805.32 171.88C803.695 171.353 802.108 170.714 800.57 169.97C798.233 168.962 795.796 168.204 793.3 167.71C790.83 167.22 787.84 167.17 786.3 169.1C785.87 169.713 785.489 170.358 785.16 171.03C784.664 171.834 784.013 172.531 783.246 173.082C782.479 173.633 781.61 174.027 780.69 174.24C779.783 174.412 778.863 174.509 777.94 174.53C778.022 174.155 778.022 173.766 777.94 173.39C776.78 169.59 780.1 166.77 784.42 165.07C788.74 163.37 805.17 150.43 807.08 147.36C808.99 144.29 822.36 134.66 822.36 134.66C822.36 134.66 842.36 129 848.92 108.38C855.48 87.7601 817.54 122.78 813.72 123.83C809.9 124.88 804.43 128.83 804.43 128.83L780.1 142.9C775.462 145.517 771.071 148.55 766.98 151.96C761.09 157.05 757.36 165.7 757.36 165.7C757.36 165.7 755.03 169.5 751.63 175C749.755 178.134 747.224 180.826 744.21 182.89L744.32 182.69C744.05 183.02 735.68 193.59 734.94 198.21C734.2 202.83 730.79 221.66 730.79 221.66C730.79 221.66 727.79 236.45 725.73 239.36C725.73 239.36 724.06 247.85 723.07 248.99C722.08 250.13 718.07 262.16 718.75 263.38C718.75 263.38 714.93 271.71 715.6 274.86L708.71 291.36C708.71 291.36 704.97 299.52 705.22 304.29C705.34 306.6 705.44 309.29 705.51 311.49V313.49C705.14 314.11 704.19 315.69 703.2 317.6C701.78 320.38 700.27 323.85 700.36 325.99C700.52 329.75 700.53 338.93 698.8 342.3L698.29 342.1C697.684 343.105 697.34 344.247 697.29 345.42L697.41 345.48C697.41 345.77 697.32 346.07 697.29 346.39C696.87 350.22 697.48 355.55 696.52 356.72C695.19 358.34 695.85 394.24 695.85 394.24C695.85 394.24 693.69 416.71 698.01 430.95L697.68 442.1C697.68 442.1 697.51 452.61 698.01 454.1C698.51 455.59 698.68 466.23 698.68 466.23L701.17 484.02C701.17 484.02 697.84 511.51 700.67 518.3C702.31 522.046 703.323 526.036 703.67 530.11C705.111 530.902 706.651 531.498 708.25 531.88V532.88L707.6 549.6V550.52C707.6 550.52 707.52 550.96 707.46 551.69V552.1C707.455 552.14 707.455 552.18 707.46 552.22V552.57C707.455 552.66 707.455 552.75 707.46 552.84C707.465 552.92 707.465 553 707.46 553.08V556.05C707.46 556.22 707.51 556.38 707.54 556.55C707.535 556.59 707.535 556.63 707.54 556.67C707.54 556.86 707.61 557.04 707.65 557.22C707.65 557.4 707.73 557.58 707.78 557.76C707.785 557.78 707.785 557.8 707.78 557.82C707.78 557.91 707.83 558.01 707.86 558.1C707.854 558.143 707.854 558.187 707.86 558.23C707.86 558.34 707.93 558.45 707.96 558.57V558.65C708.06 558.93 708.16 559.21 708.28 559.49C708.276 559.52 708.276 559.55 708.28 559.58C708.28 559.68 708.37 559.79 708.42 559.89L708.48 560.03L708.61 560.3L708.69 560.45L708.83 560.7L708.92 560.85C708.92 560.93 709.01 561.01 709.06 561.09C709.11 561.17 709.13 561.19 709.16 561.25L709.31 561.48L709.42 561.63L709.58 561.86L709.7 562.01L709.88 562.23L710 562.37L710.21 562.61L710.32 562.73L710.66 563.06C710.692 563.098 710.729 563.132 710.77 563.16C710.849 563.242 710.932 563.319 711.02 563.39L711.18 563.52L711.4 563.7L711.59 563.84L711.81 564L712.02 564.14L712.24 564.28L712.47 564.41L712.7 564.55L712.94 564.67L713.19 564.79L713.44 564.91L713.69 565.02L713.96 565.13L714.23 565.23L714.51 565.33L714.81 565.42L715.28 565.56L715.67 565.66L715.98 565.72L716.3 565.79H716.64L716.97 565.84H721.19L721.73 565.79H722.06L722.97 565.69C722.97 565.69 734.3 567.38 734.67 562.9C734.67 562.67 734.67 562.43 734.72 562.18V561.61C734.715 561.54 734.715 561.47 734.72 561.4V560.59V559.29V557.95V557.45V556.02V555.71C734.65 553.49 734.54 551.43 734.47 550.28C734.47 549.67 734.41 549.28 734.41 549.28C734.41 549.28 730.55 543.46 731.18 541.28C731.81 539.1 731.67 531.7 731.67 531.7C731.67 531.7 730.17 528.15 729.16 525.01C729.08 524.77 729.01 524.53 728.94 524.3C729.778 523.341 730.566 522.34 731.3 521.3C732.735 513.591 731.75 505.627 728.48 498.5C728.291 498.369 728.137 498.194 728.031 497.99C727.925 497.786 727.869 497.56 727.87 497.33C727.865 497.29 727.865 497.25 727.87 497.21L729.8 473.6L728.63 459.86C728.63 459.86 727.8 450.47 729.63 446.43L733.28 410.86L738.46 390.17C738.46 390.17 740.12 389.36 741.46 393.25C742.8 397.14 746.1 414.75 746.1 414.75L754.1 443.86C754.1 443.86 755.43 454.21 756.59 455.67C757.75 457.13 757.76 463.59 757.76 463.59C757.76 463.59 760.25 468.77 759.92 471.03C759.59 473.29 759.92 479.44 760.74 481.54C761.56 483.64 761.91 498.54 761.91 498.54C760.955 503.413 761.067 508.435 762.24 513.26C764.24 520.7 763.07 530.08 763.07 530.08C763.281 530.405 763.508 530.718 763.75 531.02C763.67 531.24 763.58 531.46 763.5 531.66C762.98 533.01 762.57 533.96 762.57 533.96C762.57 533.96 762.45 541.36 763.07 543.54C763.69 545.72 759.83 551.54 759.83 551.54C759.83 551.54 759.83 551.9 759.77 552.54C759.7 553.69 759.59 555.74 759.52 557.97V563.67C759.515 563.733 759.515 563.797 759.52 563.86V564.44C759.52 564.63 759.52 564.93 759.57 565.16C759.95 569.64 771.28 567.95 771.28 567.95L772.19 568.06H777.25L777.59 568L777.92 567.95L778.24 567.88L778.56 567.82L778.95 567.72L779.42 567.58L779.71 567.49L779.99 567.39C780.082 567.363 780.172 567.329 780.26 567.29L780.53 567.18L780.79 567.07L781.04 566.96L781.29 566.83L781.52 566.71L781.76 566.58L781.98 566.44L782.21 566.3L782.41 566.16L782.63 566C782.697 565.959 782.761 565.912 782.82 565.86C782.898 565.809 782.971 565.752 783.04 565.69L783.21 565.55L783.46 565.33L783.57 565.22L783.91 564.89L784.01 564.77L784.23 564.54L784.34 564.39C784.409 564.321 784.472 564.248 784.53 564.17L784.64 564.02L784.81 563.79L784.91 563.64L785.07 563.41C785.1 563.355 785.133 563.301 785.17 563.25C785.17 563.17 785.26 563.09 785.31 563.01L785.4 562.86C785.4 562.77 785.49 562.69 785.53 562.61C785.561 562.562 785.587 562.512 785.61 562.46C785.61 562.37 785.7 562.28 785.74 562.19L785.81 562.05C785.81 561.95 785.9 561.85 785.95 561.74V561.65C786.06 561.37 786.17 561.09 786.26 560.81V560.73C786.26 560.62 786.33 560.51 786.37 560.4C786.366 560.354 786.366 560.307 786.37 560.26C786.37 560.17 786.37 560.07 786.45 559.98V559.93C786.455 559.91 786.455 559.89 786.45 559.87C786.45 559.69 786.55 559.51 786.59 559.34C786.59 559.16 786.67 558.98 786.7 558.8V558.67C786.7 558.5 786.76 558.34 786.78 558.18C786.8 558.02 786.78 558.07 786.78 558.01V557.68V557.43V557.27V556.71V554.96C786.775 554.87 786.775 554.78 786.78 554.69V554.34C786.775 554.3 786.775 554.26 786.78 554.22V553.82C786.72 553.09 786.65 552.65 786.65 552.65V551.74L786.02 535.56V534.56C786.95 534.04 787.9 533.45 788.89 532.76C788.89 532.76 788.72 523.54 791.38 519.83C794.04 516.12 790.05 506.4 790.05 506.4L788.39 471.63L789.05 455.63C787.732 453.256 787.044 450.585 787.05 447.87C786.787 444.401 785.885 441.011 784.39 437.87C784.39 437.87 782.73 432.37 784.73 430.75C786.73 429.13 782.57 393.75 782.57 393.75C782.57 393.75 783.57 367.9 781.67 352.55V352.3L782.2 352.06C782.04 350.83 781.87 349.68 781.68 348.61L781.12 348.78C780.885 347.424 780.551 346.087 780.12 344.78L777.46 332.57C777.46 332.57 777.4 331.93 777.33 331C777.24 329.9 777.14 328.41 777.12 327.1C777.112 326.548 777.172 325.997 777.3 325.46L777.16 325.34C777.173 325.052 777.22 324.767 777.3 324.49L776.72 324C776.72 324 776.64 323.45 776.58 322.61C776.45 320.75 776.38 317.51 777.3 315.68C778.63 313.01 792.3 302.9 792.3 302.9L799.96 287.57C799.96 287.57 807.6 276.81 813.41 274.71C819.22 272.61 837.32 260.57 837.32 260.57C837.32 260.57 843.63 254.1 844.13 252.57L844.34 252.25H844.46V252.04L861.46 226.57C868.26 221.07 868.51 209.35 868.51 209.35L870.28 182.57L869.7 166.73L870.52 157.73C870.52 157.73 885.46 119.71 871.19 120.27V120.27ZM773.81 189.57C771.963 192.805 770.991 196.465 770.99 200.19V201.16C770.99 204.487 771.768 207.767 773.26 210.74C772.505 211.586 771.942 212.586 771.61 213.67C770.77 212.61 768.31 209.37 768.17 207.22C768 204.64 765.51 202.86 765.51 202.86C765.51 202.86 765.05 197.96 765.67 197.12L765.76 197.04C765.76 197.04 765.83 196.92 765.97 196.72C766.68 195.65 769.07 192.04 771.54 187.93C771.951 188.106 772.376 188.246 772.81 188.35L774.33 188.73L773.81 189.57Z" fill="url(#paint0_linear_65_2)"/>
<path d="M822.25 186.87C822.4 186.53 822.52 186.17 822.64 185.81C822.258 186.606 821.924 187.424 821.64 188.26C821.85 187.79 822.06 187.33 822.25 186.87Z" fill="url(#paint1_linear_65_2)"/>
<path d="M778.25 210.65C778.25 210.65 775.12 225.57 769.35 227.5C763.58 229.43 776.35 246.5 776.35 246.5L802.82 245.05L803.3 239.52C803.3 239.52 798.3 228.45 806.67 214.98C815.04 201.51 778.25 210.65 778.25 210.65V210.65Z" fill="#F6BAC2"/>
<path d="M736.74 562.92C736.38 567.37 725.43 565.69 725.43 565.69C707.27 568.21 710.27 550.41 710.27 550.41V549.5L710.9 532.9L711.08 528.27C711.08 528.27 731.08 519.13 730.57 521.05C730.38 521.77 730.8 523.5 731.38 525.37C732.38 528.48 733.81 532 733.81 532C733.81 532 733.93 539.34 733.33 541.5C732.73 543.66 736.46 549.44 736.46 549.44C736.46 549.44 736.46 549.8 736.52 550.44C736.816 554.593 736.889 558.759 736.74 562.92V562.92ZM771.75 567.73C771.75 567.73 760.8 569.42 760.44 564.96C760.274 560.79 760.337 556.613 760.63 552.45C760.63 551.85 760.68 551.45 760.68 551.45C760.68 551.45 764.41 545.67 763.81 543.51C763.21 541.35 763.33 534 763.33 534C763.33 534 763.72 533.07 764.23 531.73C765.3 528.92 766.91 524.36 766.58 523.06C766.1 521.13 786.07 530.27 786.07 530.27L786.27 535.45L786.88 551.5V552.41C786.88 552.41 789.92 570.26 771.75 567.73V567.73Z" fill="#B77983"/>
<path d="M846.82 111.92C840.46 132.37 821.16 137.99 821.16 137.99C821.16 137.99 808.24 147.57 806.4 150.57C804.56 153.57 788.68 166.45 784.5 168.14C780.32 169.83 777.13 172.63 778.25 176.39C779.25 179.88 768.31 196.96 766.66 199.5L766.46 199.82L763.01 203.43L751.3 209.36L741.76 206.31L740.55 194.85L745.61 185.85C748.537 183.788 750.983 181.116 752.78 178.02C756.07 172.56 758.32 168.8 758.32 168.8C758.32 168.8 761.93 160.22 767.62 155.16C771.557 151.776 775.798 148.763 780.29 146.16L803.8 132.16C803.8 132.16 809.09 128.23 812.8 127.16C816.51 126.09 853.16 91.47 846.82 111.92V111.92Z" fill="#F6BAC2"/>
<path opacity="0.05" d="M751.3 201.99L766.94 198.86C766.771 199.035 766.671 199.266 766.66 199.51L766.46 199.83L763.01 203.44L751.3 209.37L741.76 206.32L740.55 194.86L745.61 185.86C740.82 195.86 745.49 202.96 745.49 202.96L751.3 201.99ZM842.76 253.65C842.717 253.754 842.681 253.861 842.65 253.97C842.502 254.327 842.307 254.664 842.07 254.97L835.76 258.05L826.13 259.05L821.13 246.94L824.46 233.67L826.3 231.19L826.81 230.63C827 233.03 827.97 245.55 827.91 249.31C827.83 253.48 830.91 253.81 830.91 253.81L842.76 253.65Z" fill="black"/>
<path d="M842.28 254.57C842.237 254.674 842.2 254.781 842.17 254.89C841.69 256.41 835.6 262.83 835.6 262.83C835.6 262.83 818.11 274.78 812.5 276.83C806.89 278.88 799.5 289.58 799.5 289.58L792.12 304.81C792.12 304.81 778.89 314.81 777.61 317.49C776.72 319.31 776.79 322.49 776.92 324.37C776.92 325.2 777.04 325.75 777.04 325.75L773.14 329.82L770.03 333.06L765.65 337.62L758.52 336.62L736.3 333.09L732.04 330.69L708.39 317.37C708.39 317.37 708.39 316.54 708.33 315.27C708.33 314.71 708.33 314.07 708.27 313.36C708.2 311.2 708.1 308.51 707.99 306.22C707.75 301.49 711.36 293.39 711.36 293.39L718.01 277.02C717.37 273.9 721.06 265.63 721.06 265.63C720.42 264.43 724.27 252.48 725.23 251.36C726.19 250.24 727.8 241.81 727.8 241.81C729.8 238.93 732.69 224.25 732.69 224.25C732.69 224.25 735.98 205.64 736.69 200.99C737.4 196.34 745.49 185.92 745.75 185.6C739.98 196.18 745.03 203.88 745.03 203.88L750.81 202.88L766.46 199.83C765.74 200.31 766.22 205.6 766.22 205.6C767.606 206.654 768.524 208.208 768.78 209.93C768.93 212.28 771.78 215.93 772.31 216.58L772.39 216.67C772.591 215.554 773.033 214.494 773.683 213.565C774.334 212.637 775.179 211.86 776.16 211.29L779.77 216.11L780.98 221.88C780.98 221.88 780.65 222.69 778.57 224.29C776.49 225.89 779.45 230.06 779.45 230.06C780.45 231.75 780.74 238 780.74 238C783.39 235.68 787.55 235.68 787.55 235.68C789.244 233.98 790.628 231.996 791.64 229.82C791.724 229.464 791.889 229.131 792.12 228.848C792.352 228.564 792.644 228.337 792.977 228.183C793.309 228.029 793.672 227.952 794.038 227.958C794.404 227.965 794.764 228.054 795.09 228.22C796.298 227.171 797.615 226.256 799.02 225.49C800.95 224.49 803.19 226.49 803.19 226.49L803.43 233.88C803.43 233.88 803.62 234.18 803.93 234.59C804.56 235.47 805.69 236.82 806.4 236.59C807.4 236.27 815.46 237.07 815.46 237.07C815.46 237.07 818.27 238.27 819.31 236.75C820.35 235.23 826.31 231.22 826.31 231.22C826.31 231.22 827.46 246.11 827.46 250.27C827.46 254.43 830.46 254.77 830.46 254.77L842.28 254.57Z" fill="#D39999"/>
<path d="M776.65 246.26C777.445 246.26 778.09 245.615 778.09 244.82C778.09 244.025 777.445 243.38 776.65 243.38C775.855 243.38 775.21 244.025 775.21 244.82C775.21 245.615 775.855 246.26 776.65 246.26Z" fill="#4B4442"/>
<path d="M766.14 267.2C766.935 267.2 767.58 266.555 767.58 265.76C767.58 264.965 766.935 264.32 766.14 264.32C765.345 264.32 764.7 264.965 764.7 265.76C764.7 266.555 765.345 267.2 766.14 267.2Z" fill="#4B4442"/>
<path d="M745.45 312.03C746.245 312.03 746.89 311.385 746.89 310.59C746.89 309.795 746.245 309.15 745.45 309.15C744.655 309.15 744.01 309.795 744.01 310.59C744.01 311.385 744.655 312.03 745.45 312.03Z" fill="#4B4442"/>
<path d="M755.23 289.41C756.025 289.41 756.67 288.765 756.67 287.97C756.67 287.175 756.025 286.53 755.23 286.53C754.435 286.53 753.79 287.175 753.79 287.97C753.79 288.765 754.435 289.41 755.23 289.41Z" fill="#4B4442"/>
<path opacity="0.05" d="M731.46 525.37C723.94 534.31 715.82 534.16 710.98 532.9L711.16 528.27C711.16 528.27 731.16 519.13 730.65 521.05C730.46 521.77 730.84 523.5 731.46 525.37V525.37ZM786.27 535.49C773.5 542.87 766.01 534.22 764.27 531.77C765.34 528.96 766.95 524.4 766.62 523.1C766.14 521.17 786.11 530.31 786.11 530.31L786.27 535.49Z" fill="black"/>
<path d="M791.4 519.93C788.84 523.62 788.99 532.76 788.99 532.76C772.47 544.63 763.81 530.19 763.81 530.19C763.81 530.19 764.93 520.89 763.01 513.51C761.872 508.721 761.763 503.745 762.69 498.91C762.69 498.91 762.37 484.15 761.56 482.07C760.75 479.99 760.44 473.89 760.76 471.64C761.08 469.39 758.68 464.27 758.68 464.27C758.68 464.27 758.68 457.85 757.55 456.41C756.42 454.97 755.15 444.69 755.15 444.69L747.46 415.82C747.46 415.82 744.25 398.34 742.97 394.49C741.69 390.64 740.08 391.44 740.08 391.44L735.46 412.13L731.93 447.42C730.16 451.42 730.93 460.74 730.93 460.74L732.05 474.37L730.19 497.79C730.185 497.83 730.185 497.87 730.19 497.91C730.188 498.135 730.24 498.358 730.341 498.56C730.442 498.761 730.589 498.936 730.77 499.07C733.925 506.167 734.863 514.051 733.46 521.69C721.27 539.34 706.51 530.19 706.51 530.19C706.188 526.16 705.215 522.209 703.63 518.49C700.9 511.75 704.11 484.49 704.11 484.49L701.7 466.84C701.7 466.84 701.54 456.25 701.06 454.84C700.58 453.43 700.74 442.97 700.74 442.97L701.06 431.9C696.89 417.78 698.97 395.49 698.97 395.49C698.97 395.49 698.33 359.88 699.62 358.27C700.55 357.11 699.96 351.83 700.36 348.02C700.402 346.863 700.725 345.734 701.3 344.73L701.46 344.57C703.55 342 703.55 331.74 703.38 327.72C703.3 325.6 704.75 322.16 706.13 319.4C707.13 317.46 708.04 315.86 708.38 315.28L708.52 315.05C708.52 315.05 717.66 317.3 741.88 328.85C746.217 330.997 750.869 332.438 755.66 333.12C758.044 333.439 760.457 333.476 762.85 333.23C766.501 332.879 770.03 331.732 773.19 329.87C774.86 328.917 776.369 327.706 777.66 326.28C777.33 327.28 777.53 330.7 777.66 332.74C777.72 333.67 777.79 334.3 777.79 334.3L780.46 346.2C780.895 347.611 781.229 349.052 781.46 350.51C781.65 351.57 781.81 352.72 781.96 353.94C783.83 369.16 782.83 394.81 782.83 394.81C782.83 394.81 786.83 429.94 784.92 431.54C783.01 433.14 784.59 438.6 784.59 438.6C786.042 441.73 786.913 445.098 787.16 448.54C787.146 451.228 787.81 453.876 789.09 456.24L788.44 472.12L790.12 506.57C790.12 506.57 793.97 516.24 791.4 519.93V519.93Z" fill="#8499F0"/>
<path opacity="0.05" d="M772.59 461.86C772.59 461.86 784.74 454.86 787.39 458.01C790.04 461.16 772.59 461.86 772.59 461.86ZM779.93 465.71C779.93 465.71 777.93 466.71 782.34 467.99C786.75 469.27 779.93 465.71 779.93 465.71ZM706.46 446.46C706.05 446.58 716.57 453.56 726.07 447.78C726.03 447.78 708.83 445.74 706.46 446.46ZM725.55 459.81C725.55 459.81 722.67 465.47 716.77 466.31C710.87 467.15 725.55 459.81 725.55 459.81ZM764.17 472.09C764.17 472.09 778.01 494.09 775.36 499.28C772.71 504.47 764.17 472.09 764.17 472.09ZM740.83 338.66L739.39 381.73C739.39 381.73 747.93 381.37 749.39 367.18C750.85 352.99 751.92 341.43 751.92 341.43L740.83 338.66Z" fill="black"/>
<path d="M740.35 337.7L738.91 380.77C738.91 380.77 747.45 380.41 748.91 366.21C750.37 352.01 751.46 340.47 751.46 340.47L740.35 337.7Z" fill="#8499F0"/>
<path opacity="0.05" d="M723.03 339.63C723.03 339.63 716.29 357.7 700.87 348.95C700.911 347.793 701.234 346.664 701.81 345.66C706.03 347.43 715.81 350.02 719.81 338.3L723.03 339.63Z" fill="black"/>
<path opacity="0.05" d="M722.55 337.7C722.55 337.7 715.81 355.77 700.39 347.02C700.433 345.863 700.755 344.734 701.33 343.73C705.55 345.51 715.33 348.09 719.33 336.38L722.55 337.7Z" fill="black"/>
<path d="M722.55 338.66C722.55 338.66 715.81 356.73 700.39 347.98C700.433 346.823 700.755 345.694 701.33 344.69C705.55 346.47 715.33 349.05 719.33 337.34L722.55 338.66Z" fill="#8499F0"/>
<path opacity="0.05" d="M781.55 354.9C764.61 362.96 758.4 343.96 758.4 343.96L762.4 344.08C763.1 356.23 776.49 352.96 781.08 351.47C781.24 352.57 781.4 353.68 781.55 354.9Z" fill="black"/>
<path opacity="0.05" d="M782.51 353.46C765.58 361.51 759.36 342.51 759.36 342.51L763.36 342.63C764.06 354.78 777.45 351.52 782.04 350.03C782.2 351.09 782.36 352.24 782.51 353.46Z" fill="black"/>
<path d="M782.03 353.94C765.1 361.99 758.88 342.99 758.88 342.99L762.88 343.11C763.58 355.27 776.97 352 781.56 350.51C781.72 351.57 781.88 352.72 782.03 353.94Z" fill="#8499F0"/>
<path opacity="0.1" d="M722.55 338.66C722.55 338.66 715.81 356.73 700.39 347.98C700.433 346.823 700.755 345.694 701.33 344.69C705.55 346.47 715.33 349.05 719.33 337.34L722.55 338.66ZM782.03 353.94C765.1 361.99 758.88 342.99 758.88 342.99L762.88 343.11C763.58 355.27 776.97 352 781.56 350.51C781.72 351.57 781.88 352.72 782.03 353.94Z" fill="white"/>
<path opacity="0.05" d="M736.86 559.57C736.86 560.8 736.86 561.95 736.74 562.9C736.38 567.35 725.43 565.67 725.43 565.67C715.43 567.06 711.83 562.26 710.64 557.67C710.266 556.179 710.081 554.647 710.09 553.11C710.084 552.194 710.144 551.278 710.27 550.37V549.46C711.331 549.14 712.455 549.089 713.54 549.31C714.626 549.532 715.64 550.02 716.49 550.73C720.94 554.34 726.84 551.57 726.84 551.57C726.84 551.57 731.17 551.93 732.84 553.37C733.78 554.18 735.33 552.23 736.51 550.37C736.58 551.57 736.69 553.74 736.76 556.06C736.84 557.25 736.86 558.45 736.86 559.57V559.57Z" fill="black"/>
<path opacity="0.05" d="M719.3 559.31C719.3 559.31 716.3 562.25 710.64 557.71C710.266 556.219 710.081 554.687 710.09 553.15C712.98 555.35 718.34 559.31 719.3 559.31V559.31ZM736.86 559.57C736.616 559.758 736.336 559.895 736.037 559.971C735.738 560.047 735.427 560.061 735.123 560.012C734.818 559.963 734.527 559.853 734.267 559.687C734.007 559.522 733.783 559.305 733.61 559.05C734.777 558.162 735.849 557.157 736.81 556.05C736.84 557.25 736.86 558.45 736.86 559.57ZM760.33 561.63C760.33 562.87 760.33 564.02 760.44 564.96C760.8 569.42 771.75 567.73 771.75 567.73C781.75 569.13 785.35 564.33 786.54 559.73C787.129 557.343 787.255 554.865 786.91 552.43V551.52C785.847 551.205 784.723 551.157 783.637 551.378C782.55 551.6 781.535 552.084 780.68 552.79C776.23 556.4 770.34 553.63 770.34 553.63C770.34 553.63 766.01 554 764.34 555.44C763.4 556.25 761.85 554.3 760.68 552.44C760.61 553.64 760.49 555.81 760.42 558.13C760.34 559.3 760.32 560.5 760.33 561.63V561.63Z" fill="black"/>
<path opacity="0.05" d="M777.89 561.35C777.89 561.35 780.89 564.29 786.54 559.75C786.917 558.263 787.105 556.734 787.1 555.2C784.2 557.39 778.84 561.35 777.89 561.35V561.35ZM760.33 561.63C760.573 561.818 760.853 561.954 761.151 562.03C761.449 562.106 761.759 562.12 762.063 562.071C762.366 562.023 762.657 561.912 762.916 561.747C763.175 561.582 763.398 561.365 763.57 561.11C762.402 560.224 761.33 559.218 760.37 558.11C760.34 559.3 760.32 560.5 760.33 561.63ZM747.13 254.57C747.13 254.57 731.73 297.08 737.66 300.77C743.59 304.46 747.13 254.57 747.13 254.57ZM758.36 241.45C758.36 241.45 755.46 255.57 756.91 256.85C758.36 258.13 758.36 241.45 758.36 241.45V241.45ZM789.46 274.34C789.46 274.34 770.53 291.98 771.81 293.43C773.09 294.88 789.46 274.34 789.46 274.34ZM803.93 235.51C796.76 237.7 780 242.82 779.81 242.78L780.74 238.96C783.39 236.64 787.55 236.64 787.55 236.64C789.244 234.94 790.628 232.957 791.64 230.78C791.725 230.424 791.889 230.091 792.12 229.808C792.352 229.524 792.645 229.297 792.977 229.143C793.309 228.989 793.672 228.912 794.038 228.918C794.404 228.925 794.764 229.014 795.09 229.18C796.301 228.135 797.618 227.219 799.02 226.45C800.95 225.45 803.19 227.45 803.19 227.45L803.43 234.83C803.43 234.83 803.62 235.1 803.93 235.51V235.51Z" fill="black"/>
<path d="M803.93 234.57C796.76 236.76 780 241.88 779.81 241.83L780.74 238.02C783.39 235.7 787.55 235.7 787.55 235.7C789.244 234 790.628 232.016 791.64 229.84C791.724 229.484 791.889 229.151 792.12 228.868C792.352 228.584 792.645 228.357 792.977 228.203C793.309 228.049 793.672 227.972 794.038 227.978C794.404 227.985 794.764 228.074 795.09 228.24C796.298 227.191 797.615 226.276 799.02 225.51C800.95 224.51 803.19 226.51 803.19 226.51L803.43 233.9C803.43 233.9 803.62 234.14 803.93 234.57V234.57Z" fill="#D39999"/>
<path opacity="0.05" d="M778.97 230.57C779.97 232.26 780.25 238.51 780.25 238.51L777.46 240.73L772.16 225.45L771.92 217.51L771.82 217.06L771.9 217.15C772.1 216.035 772.541 214.976 773.192 214.049C773.843 213.121 774.689 212.347 775.67 211.78L779.28 216.59L780.49 222.36C780.49 222.36 780.16 223.17 778.08 224.77C776 226.37 778.97 230.57 778.97 230.57V230.57Z" fill="black"/>
<path d="M779.46 230.06C780.46 231.75 780.75 238 780.75 238L777.96 240.25L772.66 224.97L772.42 217.03L772.31 216.58L772.39 216.67C772.591 215.554 773.033 214.494 773.684 213.566C774.334 212.637 775.179 211.86 776.16 211.29L779.77 216.11L780.98 221.88C780.98 221.88 780.65 222.69 778.57 224.29C776.49 225.89 779.46 230.06 779.46 230.06V230.06Z" fill="#D39999"/>
<path opacity="0.05" d="M814.82 203.92C814.818 208.202 813.547 212.386 811.166 215.945C808.786 219.504 805.404 222.278 801.448 223.915C797.492 225.552 793.139 225.979 788.94 225.143C784.741 224.306 780.884 222.244 777.858 219.215C774.831 216.187 772.77 212.329 771.935 208.13C771.101 203.931 771.53 199.578 773.169 195.623C774.808 191.667 777.583 188.287 781.143 185.908C784.703 183.53 788.888 182.26 793.17 182.26C796.021 182.236 798.848 182.78 801.486 183.86C804.124 184.94 806.521 186.535 808.536 188.551C810.551 190.567 812.145 192.965 813.224 195.604C814.303 198.242 814.845 201.069 814.82 203.92V203.92Z" fill="black"/>
<path d="M814.82 202.95C814.822 207.235 813.553 211.424 811.174 214.987C808.795 218.551 805.412 221.329 801.454 222.969C797.495 224.61 793.139 225.04 788.937 224.204C784.734 223.369 780.874 221.306 777.844 218.276C774.814 215.246 772.751 211.386 771.916 207.183C771.08 202.981 771.51 198.625 773.151 194.666C774.791 190.708 777.569 187.325 781.133 184.946C784.696 182.567 788.885 181.298 793.17 181.3C796.018 181.284 798.84 181.833 801.474 182.916C804.108 183.998 806.501 185.592 808.514 187.606C810.528 189.619 812.122 192.012 813.204 194.646C814.287 197.28 814.836 200.102 814.82 202.95Z" fill="#F6BAC2"/>
<path opacity="0.05" d="M814.82 202.95C814.827 206.919 813.737 210.812 811.67 214.2C811.35 213.63 811.16 212.97 810.84 212.39C810.39 211.58 809.35 210.9 808.58 211.39C808.258 211.653 808.012 211.999 807.87 212.39C807.24 213.72 806.12 215.05 804.65 215.02C804.011 214.952 803.407 214.692 802.918 214.274C802.429 213.856 802.078 213.301 801.91 212.68C801.601 211.43 801.547 210.131 801.75 208.86C801.97 206.26 802.01 203.26 800.08 201.51C798.834 200.599 797.41 199.962 795.9 199.64C794.43 199.16 792.9 198.4 792.3 196.98C791.9 195.98 792 194.92 791.64 193.98C791.268 193.227 790.72 192.574 790.043 192.076C789.366 191.579 788.58 191.251 787.75 191.12C785.839 192.698 783.418 193.527 780.94 193.45C778.669 193.396 776.416 193.04 774.24 192.39C776.574 188.202 780.232 184.906 784.641 183.02C789.049 181.134 793.959 180.765 798.6 181.969C803.242 183.173 807.352 185.884 810.287 189.675C813.223 193.467 814.817 198.125 814.82 202.92V202.95Z" fill="black"/>
<path d="M791.64 193.04C792 194.04 791.9 195.12 792.3 196.04C792.89 197.46 794.43 198.22 795.9 198.7C797.408 199.02 798.833 199.654 800.08 200.56C802.01 202.32 801.97 205.32 801.75 207.92C801.547 209.191 801.601 210.49 801.91 211.74C802.08 212.359 802.432 212.914 802.921 213.331C803.409 213.748 804.012 214.009 804.65 214.08C806.12 214.08 807.24 212.78 807.87 211.45C808.013 211.059 808.258 210.714 808.58 210.45C809.35 209.94 810.39 210.62 810.84 211.45C811.155 212.316 811.589 213.134 812.13 213.88C812.486 214.187 812.912 214.402 813.371 214.507C813.829 214.612 814.306 214.602 814.76 214.48C815.665 214.233 816.507 213.797 817.23 213.2C819.234 211.805 820.823 209.894 821.83 207.67C822.32 206.559 822.549 205.35 822.499 204.136C822.449 202.923 822.121 201.737 821.54 200.67C820.79 199.41 819.6 198.4 819.13 197.01C818.31 194.62 819.85 192.16 820.8 189.82C821.711 187.68 822.005 185.328 821.65 183.03C821.466 181.886 821.055 180.789 820.442 179.806C819.829 178.822 819.026 177.97 818.08 177.3C814.28 174.77 809.14 176.16 804.74 174.94C803.166 174.423 801.632 173.792 800.15 173.05C797.905 172.053 795.558 171.302 793.15 170.81C790.76 170.33 787.87 170.27 786.36 172.18C785.947 172.792 785.579 173.434 785.26 174.1C784.788 174.891 784.163 175.58 783.421 176.126C782.679 176.672 781.836 177.065 780.94 177.28C779.65 177.59 778.3 177.51 776.94 177.7C776.277 177.746 775.633 177.942 775.056 178.273C774.479 178.604 773.985 179.061 773.61 179.61C772.95 180.81 773.23 182.27 773.39 183.61C773.55 184.95 773.47 186.55 772.39 187.38C771.88 187.77 771.18 187.96 770.87 188.51C770.728 188.833 770.697 189.193 770.782 189.535C770.867 189.878 771.063 190.182 771.34 190.4C771.902 190.826 772.557 191.113 773.25 191.24C775.737 192.017 778.316 192.457 780.92 192.55C783.552 192.636 786.113 191.692 788.06 189.92C787.89 190.09 786.79 190.02 786.59 190.01C788.53 190.22 790.91 191.08 791.64 193.04V193.04Z" fill="#7E646B"/>
<g opacity="0.05">
<path opacity="0.05" d="M818.46 210.77C817.735 211.366 816.894 211.805 815.99 212.06C815.537 212.178 815.061 212.183 814.605 212.077C814.149 211.971 813.725 211.756 813.37 211.45C812.824 210.706 812.386 209.887 812.07 209.02C811.62 208.21 810.58 207.53 809.81 208.02C809.493 208.288 809.248 208.632 809.1 209.02C808.48 210.35 807.35 211.68 805.88 211.65C805.242 211.582 804.639 211.322 804.151 210.905C803.664 210.487 803.315 209.931 803.15 209.31C802.838 208.061 802.78 206.762 802.98 205.49C803.21 202.89 803.24 199.9 801.32 198.14C800.07 197.229 798.643 196.592 797.13 196.27C795.67 195.79 794.13 195.03 793.53 193.61C793.13 192.61 793.23 191.55 792.87 190.61C792.28 189.02 790.61 188.15 788.98 187.75C787.062 189.318 784.647 190.148 782.17 190.09C779.567 189.989 776.988 189.545 774.5 188.77C773.809 188.642 773.156 188.358 772.59 187.94C772.474 187.832 772.37 187.711 772.28 187.58C771.838 187.769 771.453 188.069 771.16 188.45C771.018 188.773 770.987 189.133 771.072 189.475C771.157 189.818 771.353 190.122 771.63 190.34C772.192 190.765 772.847 191.053 773.54 191.18C776.027 191.957 778.607 192.397 781.21 192.49C783.683 192.556 786.097 191.729 788.01 190.16C789.64 190.56 791.32 191.42 791.91 193.01C792.27 194.01 792.17 195.09 792.57 196.01C793.17 197.43 794.7 198.19 796.17 198.67C797.678 198.99 799.103 199.624 800.35 200.53C802.28 202.29 802.24 205.29 802.02 207.89C801.817 209.161 801.871 210.46 802.18 211.71C802.35 212.329 802.702 212.884 803.191 213.301C803.679 213.718 804.282 213.979 804.92 214.05C806.39 214.05 807.51 212.75 808.14 211.42C808.283 211.029 808.528 210.684 808.85 210.42C809.62 209.91 810.66 210.59 811.11 211.42C811.424 212.288 811.862 213.107 812.41 213.85C812.764 214.157 813.188 214.372 813.645 214.477C814.102 214.582 814.578 214.572 815.03 214.45C815.935 214.203 816.777 213.767 817.5 213.17C819.504 211.775 821.093 209.864 822.1 207.64C822.278 207.212 822.422 206.771 822.53 206.32C821.506 208.077 820.119 209.594 818.46 210.77V210.77ZM820.46 191.15C820.67 190.69 820.87 190.23 821.06 189.78C821.25 189.33 821.32 189.08 821.43 188.72C821.062 189.511 820.738 190.323 820.46 191.15V191.15ZM773.7 184.86C774.7 184.01 774.77 182.49 774.61 181.18C774.492 180.415 774.429 179.644 774.42 178.87C774.207 179.078 774.022 179.314 773.87 179.57C773.21 180.77 773.49 182.23 773.65 183.57C773.702 183.998 773.719 184.429 773.7 184.86V184.86Z" fill="black"/>
</g>
<path opacity="0.05" d="M777.64 333.73C775.78 333.86 773.17 334 770.03 334.11C767.85 334.18 765.41 334.23 762.8 334.23C760.52 334.23 758.11 334.23 755.61 334.12C747.703 333.916 739.823 333.103 732.04 331.69C721.65 329.69 712.04 326.24 706.04 320.4C707.04 318.46 707.95 316.85 708.29 316.28C708.29 315.72 708.29 315.07 708.23 314.37C718.78 319.37 751.67 333.26 776.88 325.37C776.88 326.2 777 326.75 777 326.75L777.57 327.23C777.28 328.27 777.46 331.69 777.64 333.73V333.73Z" fill="black"/>
<path d="M777.64 332.77C775.78 332.9 773.17 333.04 770.03 333.14C767.85 333.22 765.41 333.26 762.8 333.26C760.52 333.26 758.11 333.26 755.61 333.15C747.703 332.949 739.823 332.14 732.04 330.73C721.65 328.73 712.04 325.27 706.04 319.43C707.04 317.49 707.95 315.89 708.29 315.31C708.29 314.75 708.29 314.11 708.23 313.4C718.78 318.4 751.67 332.3 776.88 324.45C776.88 325.28 777 325.83 777 325.83L777.57 326.31C777.28 327.31 777.46 330.73 777.64 332.77V332.77Z" fill="#4B4442"/>
<path d="M278.53 770.44C277.331 768.997 276.44 767.323 275.912 765.523C275.384 763.722 275.23 761.832 275.46 759.97L319.6 398.8L323.26 368.8C323.67 365.463 325.28 362.389 327.79 360.151C330.3 357.914 333.538 356.666 336.9 356.64L466.19 355.78C468.031 355.769 469.851 355.39 471.544 354.666C473.237 353.942 474.768 352.887 476.047 351.564C477.327 350.24 478.33 348.675 478.997 346.958C479.663 345.242 479.981 343.41 479.93 341.57L479.88 340.2C479.817 338.344 480.128 336.495 480.795 334.762C481.461 333.028 482.47 331.447 483.76 330.112C485.051 328.777 486.596 327.715 488.306 326.99C490.015 326.264 491.853 325.89 493.71 325.89H629.57C633.233 325.89 636.746 327.343 639.339 329.93C641.931 332.517 643.392 336.027 643.4 339.69C643.399 340.312 643.359 340.933 643.28 341.55C643.022 343.475 643.173 345.432 643.722 347.295C644.271 349.157 645.206 350.883 646.466 352.36C647.727 353.838 649.284 355.033 651.037 355.869C652.79 356.704 654.699 357.161 656.64 357.21L787.12 360.54C789.104 360.589 791.054 361.064 792.838 361.934C794.622 362.804 796.197 364.048 797.457 365.581C798.717 367.115 799.633 368.902 800.14 370.82C800.648 372.739 800.737 374.744 800.4 376.7L735.17 757.7L733.94 764.9C733.636 766.739 732.955 768.496 731.94 770.06L278.53 770.44Z" fill="#C0C5CC"/>
<path opacity="0.5" d="M521.774 462.688L671.171 246.448L737.286 292.126L587.889 508.367L521.774 462.688Z" fill="url(#paint2_linear_65_2)"/>
<path d="M672.287 249.373L735.145 292.8L587.748 506.144L524.891 462.717L672.287 249.373Z" fill="#F9FAFB"/>
<path d="M676.816 259.481L721.104 290.267L690.318 334.555L646.03 303.769L676.816 259.481Z" fill="#F7B643"/>
<path opacity="0.5" d="M642.122 312.852L686.558 343.552L655.858 387.989L611.422 357.289L642.122 312.852Z" fill="#F7B643"/>
<path opacity="0.3" d="M605.047 366.501L649.483 397.201L618.783 441.637L574.347 410.937L605.047 366.501Z" fill="#F7B643"/>
<path opacity="0.5" d="M507.989 484.911L581.437 233.573L658.571 256.114L585.123 507.452L507.989 484.911Z" fill="url(#paint3_linear_65_2)"/>
<path d="M583.478 236.01L656.811 257.44L584.35 505.4L511.017 483.97L583.478 236.01Z" fill="#F9FAFB"/>
<path d="M593.106 243.168L644.947 258.318L629.797 310.16L577.956 295.01L593.106 243.168Z" fill="#F97878"/>
<path opacity="0.5" d="M574.814 305.755L626.655 320.905L611.505 372.747L559.664 357.597L574.814 305.755Z" fill="#F97878"/>
<path opacity="0.3" d="M556.524 368.333L608.366 383.483L593.216 435.324L541.374 420.174L556.524 368.333Z" fill="#F97878"/>
<path opacity="0.5" d="M508.125 498.949L529.125 237.943L609.227 244.387L588.226 505.394L508.125 498.949Z" fill="url(#paint4_linear_65_2)"/>
<path d="M531.532 239.92L607.686 246.048L586.969 503.546L510.815 497.419L531.532 239.92Z" fill="#F9FAFB"/>
<path d="M542.37 244.985L596.207 249.316L591.875 303.152L538.039 298.821L542.37 244.985Z" fill="#73B53B"/>
<path opacity="0.5" d="M537.136 309.966L590.972 314.298L586.64 368.134L532.804 363.802L537.136 309.966Z" fill="#73B53B"/>
<path opacity="0.3" d="M531.91 374.968L585.746 379.3L581.414 433.136L527.578 428.804L531.91 374.968Z" fill="#73B53B"/>
<path opacity="0.5" d="M494.556 248.636L574.833 244.977L586.756 506.555L506.48 510.214L494.556 248.636Z" fill="url(#paint5_linear_65_2)"/>
<path d="M497.272 250.274L573.592 246.795L585.356 504.857L509.036 508.336L497.272 250.274Z" fill="white"/>
<path d="M508.65 253.923L562.603 251.463L565.063 305.417L511.109 307.877L508.65 253.923Z" fill="#18A0FB"/>
<path opacity="0.5" d="M513.734 316.993L567.744 314.293L570.444 368.303L516.434 371.003L513.734 316.993Z" fill="#18A0FB"/>
<path opacity="0.3" d="M514.585 384.197L568.539 381.738L570.999 435.692L517.045 438.152L514.585 384.197Z" fill="#18A0FB"/>
<path d="M529.68 590.71L461.8 616.97L362.59 655.32C358.84 648.32 353.32 638.86 346.49 627.57C322.99 588.63 284.11 528.06 249.49 474.83C210.49 414.83 176.92 364.2 176.92 364.2L201.22 357.2L399.72 299.57L529.68 590.71Z" fill="#E6ECF8"/>
<path opacity="0.1" d="M529.68 590.71L461.8 616.97C423.88 624.87 385.184 628.426 346.46 627.57C322.96 588.63 284.08 528.06 249.46 474.83L201.23 357.16L399.72 299.57L529.68 590.71Z" fill="black"/>
<path d="M580.18 574.37C580.18 574.37 474.73 636.75 317.29 622.64L191.78 316.64L251.93 306.3L459.87 270.59L577.87 568.42L580.18 574.37Z" fill="#18A0FB"/>
<path opacity="0.1" d="M577.83 568.46C553 569.68 524.27 569.56 495.37 566.11C464.09 562.43 432.63 554.85 405.66 540.95C383.11 529.34 363.83 516.71 347.02 501.56C303.29 462.23 276.23 405.97 251.93 306.34L459.87 270.63L577.83 568.46Z" fill="black"/>
<path d="M655.19 551.35C655.19 551.35 577.46 566.57 498.34 557.2C467.06 553.52 435.6 545.94 408.63 532.04C386.08 520.43 366.81 507.8 349.99 492.65C295.87 443.96 267.29 369.34 237.82 218.65C237.82 218.65 367.04 249.84 494.82 181.52C494.78 181.57 537.85 450.35 655.19 551.35V551.35Z" fill="#F9FAFB"/>
<path opacity="0.1" d="M498.34 557.2C467.06 553.52 435.6 545.94 408.63 532.04C386.08 520.43 366.81 507.8 349.99 492.65C396.07 488.91 402.69 463.72 402.69 463.72C436.85 517.93 498.34 557.2 498.34 557.2V557.2Z" fill="black"/>
<path opacity="0.3" d="M304.66 273.97C304.66 273.97 409.74 268.03 439.08 245.38L443.53 259.68C443.53 259.68 374.1 290.31 304.66 290.68V273.97ZM304.66 344.57C304.66 344.57 406.4 339 483.27 301.87L485.87 307.81C485.87 307.81 424.87 343.42 304.66 352.74V344.57ZM312.85 372.08C312.85 372.08 414.59 366.51 491.45 329.38L494.05 335.32C494.05 335.32 433.05 370.92 312.85 380.25V372.08ZM321.03 399.63C321.03 399.63 422.77 394.06 499.64 356.93L502.23 362.87C502.23 362.87 441.23 398.48 321.03 407.8V399.63ZM329.22 427.18C329.22 427.18 430.96 421.61 507.82 384.48L510.42 390.42C510.42 390.42 449.42 426.03 329.22 435.35V427.18ZM337.4 454.74C337.4 454.74 439.14 449.17 516.01 412.04L518.6 417.98C518.6 417.98 457.6 453.58 337.4 462.91V454.74Z" fill="#18A0FB"/>
<path d="M1052.77 796.81C1052.77 796.81 1010.49 794.26 1015.47 823.89C1015.47 823.89 1014.47 829.12 1019.23 831.5C1019.23 831.5 1019.3 829.3 1023.56 830.05C1025.08 830.306 1026.62 830.379 1028.16 830.27C1030.23 830.131 1032.2 829.316 1033.77 827.95C1033.77 827.95 1045.66 823.04 1050.28 803.62C1050.28 803.62 1053.7 799.38 1053.56 798.29L1046.43 801.29C1046.43 801.29 1048.87 806.44 1046.95 810.71C1046.95 810.71 1046.72 801.48 1045.35 801.71C1045.07 801.71 1041.64 803.49 1041.64 803.49C1041.64 803.49 1045.83 812.49 1042.64 818.97C1042.64 818.97 1043.84 807.92 1040.3 804.14L1035.3 807.07C1035.3 807.07 1040.2 816.33 1036.88 823.89C1036.88 823.89 1037.73 812.3 1034.24 807.78L1029.69 811.33C1029.69 811.33 1034.3 820.46 1031.49 826.73C1031.49 826.73 1031.12 813.23 1028.7 812.21C1028.7 812.21 1024.7 815.72 1024.12 817.21C1024.12 817.21 1027.27 823.83 1025.31 827.33C1025.31 827.33 1024.11 818.33 1023.13 818.33C1023.13 818.33 1019.13 824.33 1018.75 828.33C1018.75 828.33 1018.92 822.25 1022.17 817.72C1019.88 818.157 1017.77 819.252 1016.09 820.87C1016.09 820.87 1016.71 816.65 1023.15 816.29C1023.15 816.29 1026.43 811.77 1027.3 811.49C1027.3 811.49 1020.9 810.96 1017.02 812.68C1017.02 812.68 1020.44 808.68 1028.48 810.51L1032.97 806.85C1032.97 806.85 1024.54 805.69 1020.97 806.97C1020.97 806.97 1025.08 803.45 1034.18 805.97L1039.07 803.05C1039.07 803.05 1031.89 801.5 1027.61 802.05C1027.61 802.05 1032.12 799.61 1040.51 802.25L1044 800.68C1044 800.68 1038.74 799.68 1037.2 799.48C1035.66 799.28 1035.57 798.9 1035.57 798.9C1038.9 798.338 1042.33 798.719 1045.46 800C1045.46 800 1052.89 797.28 1052.77 796.81V796.81Z" fill="#18A0FB"/>
<path opacity="0.1" d="M1023.65 839.14C1040.17 839.14 1053.57 836.875 1053.57 834.08C1053.57 831.285 1040.17 829.02 1023.65 829.02C1007.13 829.02 993.73 831.285 993.73 834.08C993.73 836.875 1007.13 839.14 1023.65 839.14Z" fill="#18A0FB"/>
<path opacity="0.1" d="M813.75 824.43C870.083 824.43 915.75 820.293 915.75 815.19C915.75 810.087 870.083 805.95 813.75 805.95C757.417 805.95 711.75 810.087 711.75 815.19C711.75 820.293 757.417 824.43 813.75 824.43Z" fill="#18A0FB"/>
<path d="M1072.46 699C1072.46 699 1048.63 697.56 1051.46 714.27C1051.31 715.116 1051.44 715.987 1051.82 716.757C1052.2 717.528 1052.81 718.159 1053.57 718.56C1053.57 718.56 1053.62 717.32 1056.02 717.74C1056.88 717.881 1057.75 717.921 1058.61 717.86C1059.78 717.784 1060.89 717.328 1061.77 716.56C1061.77 716.56 1068.47 713.79 1071.08 702.84C1071.08 702.84 1073.01 700.45 1072.93 699.84L1068.93 701.55C1068.93 701.55 1070.3 704.46 1069.22 706.87C1069.22 706.87 1069.09 701.66 1068.32 701.78C1068.16 701.78 1066.23 702.78 1066.23 702.78C1066.23 702.78 1068.59 707.78 1066.81 711.51C1066.81 711.51 1067.49 705.28 1065.49 703.14L1062.66 704.8C1062.66 704.8 1065.42 710.02 1063.55 714.28C1063.55 714.28 1064.03 707.74 1062.06 705.2L1059.5 707.2C1059.5 707.2 1062.09 712.35 1060.5 715.88C1060.5 715.88 1060.29 708.27 1058.93 707.7C1057.96 708.524 1057.09 709.46 1056.34 710.49C1056.34 710.49 1058.12 714.23 1057.02 716.2C1057.02 716.2 1056.34 711.13 1055.79 711.11C1055.79 711.11 1053.55 714.46 1053.32 716.76C1053.43 714.626 1054.09 712.557 1055.25 710.76C1053.96 711.004 1052.76 711.623 1051.82 712.54C1051.82 712.54 1052.17 710.16 1055.82 709.96C1055.82 709.96 1057.67 707.41 1058.16 707.25C1058.16 707.25 1054.55 706.95 1052.36 707.92C1052.36 707.92 1054.29 705.68 1058.82 706.7L1061.36 704.63C1061.36 704.63 1056.6 703.98 1054.59 704.7C1054.59 704.7 1056.91 702.7 1062.04 704.16L1064.8 702.51C1062.68 702.045 1060.5 701.86 1058.33 701.96C1058.33 701.96 1060.88 700.58 1065.6 702.07L1067.6 701.19C1067.6 701.19 1064.6 700.6 1063.76 700.51C1062.92 700.42 1062.84 700.18 1062.84 700.18C1064.72 699.867 1066.65 700.082 1068.42 700.8C1068.42 700.8 1072.54 699.26 1072.46 699V699Z" fill="#18A0FB"/>
<path opacity="0.1" d="M1056.06 722.86C1065.38 722.86 1072.93 721.584 1072.93 720.01C1072.93 718.436 1065.38 717.16 1056.06 717.16C1046.74 717.16 1039.19 718.436 1039.19 720.01C1039.19 721.584 1046.74 722.86 1056.06 722.86Z" fill="#18A0FB"/>
<path d="M931.78 713.5C931.78 713.5 903 711.76 906.4 731.93C906.223 732.952 906.375 734.004 906.833 734.934C907.291 735.865 908.032 736.627 908.95 737.11C908.95 737.11 908.95 735.61 911.95 736.11C912.984 736.285 914.034 736.335 915.08 736.26C916.492 736.166 917.834 735.611 918.9 734.68C918.9 734.68 926.99 731.34 930.14 718.12C930.14 718.12 932.47 715.24 932.37 714.49L927.46 716.57C927.46 716.57 929.12 720.07 927.81 722.98C927.81 722.98 927.65 716.7 926.72 716.84C926.53 716.84 924.2 718.06 924.2 718.06C924.2 718.06 927.05 724.16 924.9 728.6C924.9 728.6 925.72 721.08 923.31 718.5L919.89 720.5C919.89 720.5 923.22 726.81 920.96 731.95C920.96 731.95 921.54 724.06 919.17 720.95L916.07 723.37C916.07 723.37 919.21 729.58 917.29 733.85C917.29 733.85 917.05 724.66 915.4 723.97C915.4 723.97 912.69 726.36 912.28 727.34C912.28 727.34 914.42 731.85 913.09 734.23C913.09 734.23 912.27 728.11 911.6 728.08C911.6 728.08 908.91 732.14 908.6 734.91C908.735 732.342 909.538 729.853 910.93 727.69C909.373 727.987 907.937 728.735 906.8 729.84C906.8 729.84 907.22 726.97 911.6 726.72C911.6 726.72 913.83 723.64 914.43 723.46C914.43 723.46 910.07 723.09 907.43 724.26C907.43 724.26 909.75 721.56 915.22 722.79L918.28 720.29C918.28 720.29 912.55 719.51 910.11 720.37C910.11 720.37 912.91 717.98 919.11 719.73L922.44 717.73C922.44 717.73 917.55 716.68 914.63 717.06C914.63 717.06 917.71 715.4 923.41 717.2L925.79 716.13C925.79 716.13 922.21 715.43 921.16 715.32C920.11 715.21 920.06 714.92 920.06 714.92C922.328 714.536 924.659 714.792 926.79 715.66C926.79 715.66 931.87 713.81 931.78 713.5V713.5Z" fill="#18A0FB"/>
<path opacity="0.1" d="M911.96 742.31C923.21 742.31 932.33 740.77 932.33 738.87C932.33 736.97 923.21 735.43 911.96 735.43C900.71 735.43 891.59 736.97 891.59 738.87C891.59 740.77 900.71 742.31 911.96 742.31Z" fill="#18A0FB"/>
<path opacity="0.1" d="M54.65 824.06C71.1743 824.06 84.57 821.794 84.57 819C84.57 816.205 71.1743 813.94 54.65 813.94C38.1256 813.94 24.73 816.205 24.73 819C24.73 821.794 38.1256 824.06 54.65 824.06Z" fill="#18A0FB"/>
<path d="M34.5601 795.49C34.5601 795.49 51.6201 794.97 56.7701 791.31C61.9201 787.65 83.0201 783.31 84.3001 789.14C85.5801 794.97 109.95 818.36 90.6801 818.52C71.4101 818.68 45.9101 815.52 40.7701 812.39C35.6301 809.26 34.5601 795.49 34.5601 795.49V795.49Z" fill="#A8A8A8"/>
<path opacity="0.2" d="M91.02 816.47C71.75 816.63 46.25 813.47 41.11 810.34C37.21 807.96 35.65 799.41 35.11 795.47H34.54C34.54 795.47 35.62 809.24 40.75 812.37C45.88 815.5 71.46 818.67 90.68 818.57C96.24 818.52 98.16 816.57 98.06 813.57C97.28 815.33 95.16 816.44 91.02 816.47Z" fill="black"/>
<path d="M789.71 162.307L842.478 -0.000288094L1132.93 94.4304L1080.17 256.738L789.71 162.307Z" fill="url(#paint6_linear_65_2)"/>
<path d="M792.078 161.847L844.12 1.77399L1130.56 94.9L1078.52 254.973L792.078 161.847Z" fill="#F6F7F9"/>
<path opacity="0.2" d="M874.94 121.73C892.26 121.73 906.3 107.69 906.3 90.37C906.3 73.0504 892.26 59.01 874.94 59.01C857.62 59.01 843.58 73.0504 843.58 90.37C843.58 107.69 857.62 121.73 874.94 121.73Z" fill="#18A0FB"/>
<path opacity="0.2" d="M949.971 84.724L952.627 76.555L1082.56 118.799L1079.91 126.968L949.971 84.724ZM943.2 105.552L945.855 97.382L1012.04 118.902L1009.39 127.072L943.2 105.552ZM936.416 126.393L939.072 118.223L1046.13 153.028L1043.47 161.198L936.416 126.393ZM929.646 147.226L932.302 139.056L1062.24 181.3L1059.58 189.47L929.646 147.226Z" fill="#18A0FB"/>
<path opacity="0.5" d="M1011.37 215.488L1016.5 199.692L1052.46 211.382L1047.32 227.178L1011.37 215.488Z" fill="#18A0FB"/>
<path d="M934.97 482.96C934.955 482.625 934.922 482.291 934.87 481.96C934.87 481.61 934.76 481.26 934.7 480.96C934.57 480.28 934.43 479.61 934.27 478.96C934.19 478.65 934.11 478.33 934.02 478.03C933.073 474.483 931.367 471.183 929.02 468.36C928.89 468.2 928.75 468.05 928.62 467.9C928.49 467.75 928.08 467.32 927.81 467.05C927.54 466.78 927.29 466.54 927.03 466.31C926.77 466.08 926.53 465.87 926.29 465.67C925.81 465.28 925.36 464.95 924.97 464.67C924.58 464.39 924.4 464.29 924.16 464.15C923.587 463.808 922.945 463.599 922.28 463.54L918.13 463.13L912.46 462.57L892.19 454.7L891.39 454.98C890.796 453.343 890.295 451.674 889.89 449.98C890.504 449.714 891.051 449.315 891.49 448.81C891.968 448.438 892.346 447.954 892.59 447.4C893.1 446.22 892.12 443.71 892.32 442.27C892.64 439.96 893.84 437.73 894.82 435.64C896.9 431.15 898.42 426.28 898.17 421.35C897.92 416.42 895.67 411.42 891.51 408.67C889.36 407.24 886.83 406.48 884.59 405.18C882.85 404.18 881.32 402.84 879.66 401.7C875.578 398.978 870.858 397.363 865.964 397.012C861.07 396.662 856.169 397.588 851.74 399.7C847.53 401.77 843.94 404.87 839.97 407.36C836 409.85 831.32 411.76 826.67 411.02C826.606 411.209 826.559 411.403 826.53 411.6L826.14 411.55C825.34 413.73 827.3 415.89 829.14 417.38C832.57 420.21 836.46 423.03 840.93 423.13C842.66 423.13 844.49 422.8 846.06 423.51C846.417 423.668 846.753 423.869 847.06 424.11C846.065 428.098 846.192 432.283 847.427 436.202C848.663 440.122 850.958 443.624 854.06 446.32L843.71 442.6C843.71 442.6 843.28 442.82 842.61 443.24L828.25 433.68C828.25 433.68 799.46 423.24 791.46 439.5C783.46 455.76 826.13 447.37 826.13 447.37L835.26 452.37C834.953 454.257 835.306 456.193 836.26 457.85L861.15 473.23C856.15 474.78 847.86 477.23 846.39 477.23C844.26 477.23 838.39 479.33 834.66 487.72C830.93 496.11 817.59 537.04 805.86 543.86C794.13 550.68 763.2 596.33 763.2 596.33L763.34 596.69C762.79 596.84 762.25 596.99 761.72 597.17C755.225 599.425 749.603 603.665 745.65 609.29C745.126 610.018 744.802 610.871 744.71 611.764C744.617 612.656 744.76 613.557 745.124 614.377C745.488 615.197 746.061 615.908 746.785 616.438C747.508 616.968 748.358 617.3 749.25 617.4C761.46 618.95 768.13 613.32 771.34 609.07C771.55 608.8 771.74 608.53 771.92 608.26C772.87 608.668 773.936 608.718 774.92 608.4L789.85 596.33C789.85 596.33 778.17 607.83 785.02 618.33L784.5 619.06C772.954 635.544 764.484 653.981 759.5 673.48C759.5 673.48 753.1 678.2 752.57 697.09C752.04 715.98 745.63 746.41 745.63 746.41C745.63 746.41 741.37 782.62 744.03 793.63C744.03 793.63 744.34 794.07 744.91 794.74C744.71 794.98 744.49 795.24 744.25 795.5C741.92 798.02 737.72 801.5 732.83 800.5C725.37 798.92 725.37 812.04 736.03 813.09C742.9 813.76 756.4 816.83 765.15 818.93C766.103 819.17 767.1 819.178 768.057 818.952C769.014 818.726 769.902 818.274 770.647 817.633C771.393 816.991 771.973 816.18 772.339 815.268C772.705 814.355 772.846 813.368 772.75 812.39C772.23 807.69 771.28 802 769.55 797.95C769.44 797.7 769.33 797.45 769.22 797.22C769.53 796.92 769.85 796.62 770.16 796.3C770.16 796.3 770.16 773.21 773.9 766.92C773.9 766.92 784.03 719.17 783.49 707.1C783.08 697.66 809.78 660.89 821.4 645.36L821.3 644.77C824.3 640.77 826.16 638.37 826.16 638.37L835.15 695.57C835.15 695.57 839.42 708.16 844.75 714.98C844.75 714.98 867.68 758.53 870.35 772.17C872.35 782.52 876.53 788.63 878.43 790.99L877.74 791.65C875.31 793.88 871.74 796.11 867.68 795.26C860.22 793.68 860.22 806.8 870.88 807.85C877.75 808.53 891.25 811.6 899.99 813.7C900.945 813.94 901.943 813.948 902.901 813.721C903.859 813.495 904.748 813.042 905.494 812.399C906.24 811.757 906.821 810.945 907.188 810.032C907.554 809.118 907.696 808.13 907.6 807.15C906.99 801.69 905.8 794.9 903.5 790.89C903.314 790.546 903.111 790.213 902.89 789.89C903.703 789.565 904.429 789.055 905.01 788.4C905.01 788.4 891.14 755.34 891.14 746.4C891.14 746.4 885.28 712.3 865.55 699.71C865.55 699.71 867.41 657.05 873.03 633.31C873.17 632.73 873.31 632.15 873.45 631.59C878.688 630.771 883.881 629.69 889.01 628.35L889.54 612.61L892.21 625.2L922.07 606.84C922.07 606.84 921.81 603.53 921.31 598.46C921.05 595.92 920.74 592.94 920.37 589.71C920.07 587.13 919.73 584.39 919.37 581.59C919.27 580.89 919.18 580.18 919.08 579.48C918.69 576.65 918.26 573.79 917.8 570.99C917.62 569.937 917.44 568.897 917.26 567.87C917.01 566.5 916.76 565.16 916.5 563.87C916.37 563.22 916.23 562.57 916.1 561.94C915.97 561.31 915.82 560.68 915.68 560.07C915.54 559.46 915.4 558.87 915.26 558.28C915.18 557.99 915.11 557.7 915.04 557.42C914.89 556.85 914.74 556.29 914.59 555.75C913.964 553.506 913.602 551.197 913.51 548.87V546.1C913.51 545.18 913.65 544.26 913.78 543.34C913.84 542.89 913.92 542.43 914.01 541.98C914.349 540.151 914.854 538.357 915.52 536.62C915.85 535.75 916.23 534.89 916.64 534.04C917.64 532.04 918.64 529.91 919.7 527.64C920.24 526.51 920.78 525.35 921.32 524.17C921.86 522.99 922.41 521.79 922.96 520.57C928.15 509 933.27 496.11 934.64 487.64C934.78 486.75 934.89 485.91 934.94 485.12C934.998 484.401 935.008 483.68 934.97 482.96V482.96Z" fill="url(#paint7_linear_65_2)"/>
<path d="M845.9 451.57L828.31 439.68C828.31 439.68 800.38 429.33 792.62 445.37C784.86 461.41 826.24 453.13 826.24 453.13L843.83 462.95L845.9 451.57Z" fill="#AE6E79"/>
<path d="M655.062 550.223L746.042 408.699L966.356 550.331L875.377 691.854L655.062 550.223Z" fill="#F9FAFB"/>
<path d="M687.708 540.351L713.234 500.175L722.688 506.181L697.161 546.357L687.708 540.351ZM717.924 548.49L773.986 460.253L782.654 465.761L726.593 553.997L717.924 548.49ZM736.442 560.245L792.504 472.008L801.172 477.515L745.11 565.752L736.442 560.245ZM754.954 572.018L811.016 483.781L819.684 489.289L763.623 577.525L754.954 572.018ZM774.111 589.076L830.563 501.263L839.19 506.808L782.738 594.622L774.111 589.076Z" fill="#18A0FB"/>
<path d="M791.983 595.541L848.044 507.304L856.713 512.812L800.651 601.049L791.983 595.541ZM810.5 607.296L866.562 519.059L875.23 524.567L819.169 612.803L810.5 607.296Z" fill="white"/>
<path d="M888.242 557.172L902.758 534.324L925.607 548.841L911.09 571.689L888.242 557.172Z" fill="#B7B6CC"/>
<path d="M897.93 814.21C889.44 812.14 876.35 809.12 869.69 808.45C859.34 807.45 859.34 794.45 866.59 796.03C870.51 796.88 873.99 794.67 876.34 792.48C877.053 791.794 877.722 791.063 878.34 790.29C879.195 789.25 880.375 788.528 881.69 788.24C885.57 787.4 893.69 786.12 898.6 788.79C899.748 789.503 900.676 790.521 901.28 791.73C903.51 795.73 904.67 802.38 905.28 807.73C905.383 808.684 905.255 809.65 904.907 810.544C904.56 811.439 904.002 812.238 903.282 812.873C902.562 813.507 901.7 813.96 900.769 814.193C899.838 814.426 898.864 814.432 897.93 814.21V814.21ZM767.06 819.38C758.58 817.31 745.49 814.29 738.83 813.62C728.48 812.62 728.48 799.62 735.72 801.21C740.46 802.21 744.54 798.8 746.79 796.32C747.07 796.02 747.32 795.73 747.53 795.46C748.39 794.441 749.565 793.737 750.87 793.46C754.75 792.61 762.87 791.33 767.79 794.01C769.25 794.79 770.41 796.51 771.34 798.74C773.01 802.74 773.93 808.34 774.44 812.97C774.532 813.922 774.395 814.882 774.041 815.771C773.686 816.659 773.125 817.45 772.402 818.077C771.68 818.705 770.819 819.15 769.889 819.377C768.96 819.603 767.99 819.604 767.06 819.38V819.38Z" fill="#BEBED0"/>
<path opacity="0.1" d="M771.34 798.7C758.99 811.43 748.4 798.46 746.79 796.32C747.07 796.02 747.32 795.73 747.53 795.46C748.39 794.441 749.565 793.737 750.87 793.46C754.75 792.61 762.87 791.33 767.79 794.01C769.25 794.75 770.46 796.47 771.34 798.7ZM901.33 791.73C895.98 795.38 877.97 794.48 877.97 794.48C877.377 793.856 876.832 793.187 876.34 792.48C877.053 791.794 877.722 791.063 878.34 790.29C879.195 789.25 880.375 788.528 881.69 788.24C885.57 787.4 893.69 786.12 898.6 788.79C899.766 789.496 900.712 790.515 901.33 791.73V791.73Z" fill="black"/>
<path d="M902.28 789.31C898.65 793.97 877.97 792.93 877.97 792.93C877.97 792.93 871.76 786.72 869.17 773.28C866.58 759.84 844.34 716.9 844.34 716.9C839.17 710.17 835.03 697.76 835.03 697.76L826.24 641.38C826.24 641.38 783.83 697.24 784.35 709.14C784.87 721.04 775.03 768.14 775.03 768.14C771.41 774.35 771.41 797.14 771.41 797.14C757.97 811.14 746.59 794.55 746.59 794.55C744 783.69 748.14 748 748.14 748C748.14 748 754.35 718 754.86 699.38C755.37 680.76 761.59 676.11 761.59 676.11C766.421 656.918 774.647 638.744 785.88 622.45C789 617.98 791.07 615.59 791.07 615.59L874.86 625.42C873.253 628.976 872.046 632.698 871.26 636.52C865.81 659.92 864 701.97 864 701.97C883.14 714.38 888.83 747.97 888.83 747.97C888.83 756.72 902.28 789.31 902.28 789.31V789.31Z" fill="#5C5C8E"/>
<g opacity="0.05">
<path opacity="0.05" d="M821.63 648.27L820.55 641.38C820.55 641.38 778.14 697.24 778.66 709.14C779.18 721.04 769.35 768.14 769.35 768.14C765.72 774.35 765.72 797.14 765.72 797.14C763.554 799.584 760.754 801.38 757.63 802.33C761.7 803.4 766.63 802.61 771.93 797.14C771.93 797.14 771.93 774.38 775.55 768.14C775.55 768.14 785.38 721.07 784.86 709.14C784.46 699.83 810.35 663.57 821.63 648.27V648.27Z" fill="black"/>
<path opacity="0.05" d="M889.34 747.93C889.34 747.93 883.65 714.31 864.52 701.93C864.52 701.93 866.33 659.88 871.77 636.48C872.558 632.658 873.769 628.935 875.38 625.38L791.59 615.57C791.59 615.57 791.39 615.79 791.03 616.23L869.17 625.4C867.563 628.956 866.356 632.678 865.57 636.5C860.12 659.9 858.31 701.95 858.31 701.95C877.45 714.36 883.14 747.95 883.14 747.95C883.14 756.74 896.59 789.33 896.59 789.33C894.45 792.07 886.39 792.84 880.12 793.01C885.12 793.14 899.79 793.19 902.79 789.33C902.79 789.31 889.34 756.72 889.34 747.93Z" fill="black"/>
</g>
<path d="M775.55 608.28C774.924 609.808 774.1 611.246 773.1 612.56C769.99 616.75 763.52 622.29 751.68 620.77C750.808 620.658 749.979 620.322 749.275 619.795C748.572 619.268 748.016 618.567 747.664 617.761C747.311 616.956 747.174 616.072 747.264 615.198C747.355 614.323 747.67 613.486 748.18 612.77C751.981 607.226 757.438 603.026 763.77 600.77C765.912 600.063 768.131 599.613 770.38 599.43L775.55 608.28Z" fill="#AE6E79"/>
<path d="M884.79 463.62L843.31 448.45C843.31 448.45 831.41 454.66 836.07 463.45L876.46 488.8L884.79 463.62Z" fill="#0B0C12"/>
<path opacity="0.1" d="M884.95 463.79L843.46 448.62C843.46 448.62 831.56 454.82 836.22 463.62L876.56 488.96L884.95 463.79Z" fill="black"/>
<path d="M886.24 438.62C886.24 438.62 885.72 462.93 896.59 471.21C907.46 479.49 865.03 484.14 865.03 484.14C865.03 484.14 871.76 459.31 865.03 446.38C858.3 433.45 886.24 438.62 886.24 438.62V438.62Z" fill="#AE6E79"/>
<path opacity="0.1" d="M874.86 625.35C873.253 628.905 872.046 632.628 871.26 636.45C821.26 644.09 786.41 623.28 786.41 623.28C786.22 622.98 786.04 622.68 785.88 622.38C789 617.91 791.07 615.52 791.07 615.52L874.86 625.35ZM775.55 608.28C774.924 609.808 774.1 611.246 773.1 612.56C768.31 611.76 764.48 602.56 763.77 600.82C765.912 600.113 768.131 599.663 770.38 599.48L775.55 608.28Z" fill="black"/>
<path d="M890.38 460.35L871.76 467.07L864 477.42C864 477.42 848 482.59 845.9 482.59C843.8 482.59 838.14 484.66 834.52 492.93C830.9 501.2 817.97 541.57 806.59 548.28C795.21 554.99 765.21 600 765.21 600C765.21 600 770.38 614 776.59 611.9L791.07 600C791.07 600 779.69 611.38 786.41 621.73C786.41 621.73 828.83 647.07 887.28 631.55L887.79 616.04L890.38 628.45L919.38 610.35C919.38 610.35 916.79 576.96 912.12 559.97C910.186 552.825 910.896 545.223 914.12 538.56C921.63 522.91 933.22 496.77 931.81 487.24C930.14 476.01 923.81 471.13 921.37 469.66C920.817 469.323 920.195 469.114 919.55 469.05L910.08 468.11L890.38 460.35Z" fill="#0B0C12"/>
<path opacity="0.05" d="M858.57 512.33C858.57 512.33 848.22 560.43 836.84 568.19C825.46 575.95 794.95 600.78 793.91 604.92" fill="black"/>
<path d="M853.91 510.78C853.91 510.78 843.57 558.88 832.19 566.64C820.81 574.4 790.29 599.23 789.26 603.36" fill="#0B0C12"/>
<path opacity="0.1" d="M863.74 477.16C863.74 477.16 899.43 465.26 909.74 468.36Z" fill="black"/>
<g opacity="0.05">
<path opacity="0.05" d="M914.07 538.57C921.58 522.92 933.17 496.78 931.76 487.25C930.09 476.02 923.76 471.14 921.32 469.67C920.767 469.333 920.145 469.124 919.5 469.06L915.5 468.66C915.924 468.757 916.329 468.922 916.7 469.15C919.12 470.63 925.47 475.5 927.13 486.74C928.54 496.26 916.95 522.41 909.45 538.06C906.226 544.719 905.516 552.319 907.45 559.46C912.13 576.46 914.72 609.84 914.72 609.84L889.78 625.43L890.41 628.43L919.41 610.33C919.41 610.33 916.82 576.94 912.15 559.95C910.198 552.824 910.88 545.234 914.07 538.57V538.57ZM905.38 467.59L909.86 468.04L890.38 460.35L888.63 460.98L905.38 467.59Z" fill="black"/>
</g>
<path opacity="0.05" d="M853.91 560.95C853.91 560.95 869.91 552.16 875.12 554.23C880.33 556.3 899.43 553.71 899.43 553.71L853.91 560.95ZM884.46 445.09C883.87 439.9 886.27 440.69 886.27 440.69C886.27 440.69 858.34 435.52 865.06 448.45C866.754 452.013 867.72 455.879 867.9 459.82H868.17C875.93 459.83 880.46 451.15 884.46 445.09V445.09Z" fill="black"/>
<path d="M868.14 457.76C880.423 457.76 890.38 447.803 890.38 435.52C890.38 423.237 880.423 413.28 868.14 413.28C855.857 413.28 845.9 423.237 845.9 435.52C845.9 447.803 855.857 457.76 868.14 457.76Z" fill="#AE6E79"/>
<path opacity="0.1" d="M892.46 442.1C894.46 437.67 895.95 432.87 895.71 428.01C895.47 423.15 893.29 418.22 889.25 415.5C887.17 414.1 884.71 413.35 882.54 412.07C880.85 411.07 879.36 409.76 877.75 408.64C873.811 405.955 869.233 404.356 864.478 404.005C859.724 403.654 854.961 404.563 850.67 406.64C846.59 408.64 843.11 411.75 839.26 414.2C835.41 416.65 830.87 418.53 826.36 417.81C825.58 419.96 827.49 422.08 829.24 423.56C832.57 426.35 836.34 429.13 840.68 429.22C842.36 429.22 844.13 428.9 845.68 429.6C846.707 430.167 847.579 430.977 848.22 431.96C850.308 434.737 852.079 437.739 853.5 440.91C853.935 442.273 854.754 443.482 855.86 444.39C857.86 445.67 860.45 444.6 862.86 444.51C866.54 444.36 869.86 446.68 872.58 449.16C875.3 451.64 877.9 454.48 881.34 455.79C883.91 456.79 889.05 456.73 890.34 453.66C890.83 452.5 889.88 450.02 890.08 448.6C890.561 446.332 891.363 444.143 892.46 442.1V442.1Z" fill="black"/>
<path d="M892.92 441.57C894.92 437.14 896.42 432.34 896.17 427.49C895.92 422.64 893.76 417.69 889.72 414.98C887.63 413.57 885.17 412.82 883.01 411.54C881.32 410.54 879.83 409.24 878.22 408.11C874.281 405.425 869.703 403.826 864.948 403.475C860.194 403.124 855.431 404.033 851.14 406.11C847.06 408.11 843.58 411.21 839.73 413.66C835.88 416.11 831.34 418 826.83 417.27C826.05 419.43 827.95 421.55 829.71 423.02C833.04 425.81 836.81 428.59 841.15 428.69C842.83 428.69 844.6 428.36 846.15 429.07C847.181 429.631 848.055 430.443 848.69 431.43C850.778 434.202 852.546 437.201 853.96 440.37C854.398 441.734 855.221 442.942 856.33 443.85C858.33 445.13 860.92 444.06 863.33 443.97C867.01 443.83 870.33 446.15 873.04 448.63C875.75 451.11 878.36 453.94 881.81 455.25C884.38 456.25 889.52 456.19 890.81 453.12C891.31 451.96 890.36 449.48 890.56 448.06C891.036 445.796 891.83 443.611 892.92 441.57V441.57Z" fill="#0B0C12"/>
<path opacity="0.1" d="M731.92 770C730.055 771.531 727.712 772.359 725.3 772.34L278.53 770.44C277.331 768.997 276.44 767.323 275.912 765.523C275.384 763.722 275.23 761.832 275.46 759.97L319.6 398.8L347.28 398.5C349.595 398.477 351.852 399.222 353.698 400.619C355.543 402.016 356.874 403.986 357.48 406.22L362.65 425.3C363.262 427.558 364.613 429.545 366.488 430.944C368.362 432.344 370.651 433.075 372.99 433.02L483.46 430.37C486.191 430.305 488.787 429.174 490.695 427.219C492.603 425.265 493.671 422.641 493.67 419.91V407.27C493.67 404.516 494.755 401.874 496.691 399.916C498.627 397.958 501.257 396.842 504.01 396.81L657.09 395.16C659.539 395.137 661.918 395.975 663.813 397.526C665.708 399.077 666.999 401.245 667.46 403.65L735.16 757.65L735.6 759.93C735.959 761.784 735.806 763.702 735.158 765.476C734.509 767.25 733.39 768.814 731.92 770V770Z" fill="black"/>
<path d="M652.09 400.17L499.01 401.82C496.257 401.849 493.626 402.962 491.688 404.919C489.751 406.875 488.662 409.516 488.66 412.27V424.92C488.658 427.648 487.591 430.267 485.685 432.219C483.78 434.172 481.187 435.302 478.46 435.37L368 438.02C365.659 438.079 363.367 437.35 361.49 435.95C359.613 434.55 358.261 432.56 357.65 430.3L352.46 411.23C351.855 408.993 350.523 407.021 348.675 405.624C346.827 404.226 344.567 403.483 342.25 403.51L194.7 405.1C193.188 405.115 191.698 405.457 190.331 406.104C188.965 406.751 187.755 407.687 186.785 408.847C185.815 410.006 185.109 411.363 184.714 412.822C184.32 414.282 184.247 415.809 184.5 417.3L243.86 766.66C244.272 769.089 245.528 771.294 247.407 772.887C249.286 774.481 251.667 775.36 254.13 775.37L720.27 777.37C721.813 777.375 723.337 777.039 724.735 776.386C726.132 775.732 727.368 774.778 728.354 773.591C729.339 772.404 730.049 771.014 730.434 769.52C730.819 768.026 730.869 766.465 730.58 764.95L662.46 408.66C662.001 406.254 660.711 404.085 658.815 402.534C656.92 400.982 654.539 400.145 652.09 400.17V400.17Z" fill="#E6EAF0"/>
<path d="M867.68 160.93L866.88 169.83L867.46 185.57L865.77 212.12C865.77 212.12 865.53 223.75 858.96 229.2L842.19 254.95L842.09 255L835.78 258.08L826.15 259.08L821.15 246.97L824.46 233.67L826.3 231.19L826.81 230.63C828.81 228.43 836.53 220.44 842.66 217.95C842.66 217.95 846.75 214.95 846.03 210.25C845.31 205.55 851.55 180.57 851.55 180.57C851.55 180.57 855.55 164.05 854.68 162.44C853.81 160.83 854.52 124.26 868.32 123.7C882.12 123.14 867.68 160.93 867.68 160.93V160.93Z" fill="#F6BAC2"/>
<path opacity="0.1" d="M151.43 703.11C160.382 703.11 167.64 702.112 167.64 700.88C167.64 699.648 160.382 698.65 151.43 698.65C142.477 698.65 135.22 699.648 135.22 700.88C135.22 702.112 142.477 703.11 151.43 703.11Z" fill="#18A0FB"/>
<path opacity="0.1" d="M89.3399 709.4C98.2924 709.4 105.55 708.402 105.55 707.17C105.55 705.938 98.2924 704.94 89.3399 704.94C80.3873 704.94 73.1299 705.938 73.1299 707.17C73.1299 708.402 80.3873 709.4 89.3399 709.4Z" fill="#18A0FB"/>
<path opacity="0.1" d="M16.21 700.88C25.1625 700.88 32.42 699.882 32.42 698.65C32.42 697.418 25.1625 696.42 16.21 696.42C7.25746 696.42 0 697.418 0 698.65C0 699.882 7.25746 700.88 16.21 700.88Z" fill="#18A0FB"/>
<path opacity="0.1" d="M114.19 726.68C120.552 726.68 125.71 725.973 125.71 725.1C125.71 724.227 120.552 723.52 114.19 723.52C107.828 723.52 102.67 724.227 102.67 725.1C102.67 725.973 107.828 726.68 114.19 726.68Z" fill="#18A0FB"/>
<path opacity="0.1" d="M49.75 725.1C56.1123 725.1 61.27 724.393 61.27 723.52C61.27 722.647 56.1123 721.94 49.75 721.94C43.3877 721.94 38.23 722.647 38.23 723.52C38.23 724.393 43.3877 725.1 49.75 725.1Z" fill="#18A0FB"/>
<path d="M88.9901 706.68C88.9901 706.68 111.72 632.16 85.4301 602.31C65.7601 579.98 43.4301 582.65 33.4301 585.41C30.8444 586.101 28.4395 587.345 26.3814 589.056C24.3234 590.767 22.6614 592.904 21.5101 595.32C18.0101 602.86 18.6401 615.1 43.3201 629.39C84.6301 653.31 87.2001 686.12 87.2001 686.12L88.9901 706.68Z" fill="#18A0FB"/>
<path d="M94.72 648.36C94.72 648.36 87.28 647.77 87.15 651.36M37 595.98C37 595.98 104 616.98 89 706.68L37 595.98ZM76.14 603.49C76.14 603.49 66.91 609.71 69.85 619.06L76.14 603.49ZM43.72 609.03C43.72 609.03 49.36 603.29 56.23 606.46L43.72 609.03ZM70.21 637.89C70.21 637.89 80.12 632.89 82.68 639.16L70.21 637.89Z" stroke="#565987" stroke-miterlimit="10"/>
<path d="M89.9101 707.27C89.9101 707.27 63.2801 653.11 55.9701 654.27C52.5001 654.84 50.9001 658.27 50.1701 661.69C49.2726 666.127 49.7794 670.734 51.6201 674.87C55.4001 683.57 65.5501 700.02 89.9101 707.27V707.27Z" fill="#18A0FB"/>
<path d="M78.5101 690.07L78.3101 694.91M56.1701 664.57C56.1701 664.57 84.1101 705.09 89.5101 706.87L56.1701 664.57ZM53.6001 670.9H60.1201H53.6001ZM61.4101 685.72L71.6401 686.16L61.4101 685.72ZM67.6401 673.86L66.5301 679.19L67.6401 673.86Z" stroke="#565987" stroke-miterlimit="10"/>
<path d="M89.1201 707.27C89.1201 707.27 115.74 653.11 123.05 654.27C126.53 654.84 128.13 658.27 128.85 661.69C129.748 666.127 129.241 670.734 127.4 674.87C123.62 683.57 113.46 700.02 89.1201 707.27V707.27Z" fill="#18A0FB"/>
<path d="M100.52 690.07L100.72 694.91M122.86 664.57C122.86 664.57 94.86 705.09 89.51 706.87L122.86 664.57ZM125.43 670.9H118.91H125.43ZM117.62 685.72L107.39 686.16L117.62 685.72ZM111.39 673.86L112.5 679.19L111.39 673.86Z" stroke="#565987" stroke-miterlimit="10"/>
<path d="M43.4001 719.92C42.6756 719.328 42.1488 718.529 41.8901 717.63C41.7665 717.179 41.8048 716.699 41.9985 716.273C42.1921 715.848 42.5289 715.503 42.9501 715.3C43.9501 714.93 44.9501 715.6 45.7501 716.3C46.5501 717 47.4601 717.74 48.4601 717.57C47.9294 717.089 47.5325 716.479 47.3081 715.799C47.0838 715.119 47.0396 714.392 47.1801 713.69C47.2211 713.399 47.3423 713.126 47.5301 712.9C48.0701 712.32 49.0501 712.57 49.7001 713.03C51.7001 714.47 52.3301 717.26 52.3401 719.78C52.4402 718.856 52.4402 717.924 52.3401 717C52.3136 716.534 52.4019 716.069 52.5972 715.645C52.7925 715.222 53.0888 714.853 53.4601 714.57C53.9469 714.304 54.4957 714.173 55.0501 714.19C55.5095 714.124 55.9777 714.156 56.424 714.284C56.8703 714.411 57.2847 714.631 57.6401 714.93C57.9804 715.393 58.1555 715.958 58.1374 716.532C58.1193 717.107 57.9089 717.659 57.5401 718.1C56.7739 718.96 55.8678 719.683 54.8601 720.24C54.0952 720.7 53.4427 721.326 52.9501 722.07C52.8896 722.17 52.8426 722.278 52.8101 722.39H46.9901C45.6873 721.733 44.4796 720.902 43.4001 719.92V719.92ZM144.85 698.1C144.124 697.514 143.597 696.717 143.34 695.82C143.216 695.37 143.253 694.891 143.444 694.465C143.636 694.04 143.971 693.695 144.39 693.49C145.39 693.12 146.39 693.79 147.19 694.49C147.99 695.19 148.89 695.95 149.92 695.8C149.389 695.321 148.991 694.713 148.765 694.035C148.539 693.357 148.493 692.632 148.63 691.93C148.674 691.638 148.799 691.365 148.99 691.14C149.53 690.56 150.51 690.81 151.16 691.26C153.21 692.71 153.79 695.5 153.8 698.02C153.9 697.093 153.9 696.157 153.8 695.23C153.755 694.77 153.823 694.305 153.997 693.877C154.171 693.448 154.447 693.069 154.8 692.77C155.289 692.511 155.837 692.383 156.39 692.4C156.849 692.335 157.316 692.367 157.762 692.493C158.208 692.618 158.623 692.835 158.98 693.13C159.322 693.595 159.496 694.162 159.476 694.739C159.456 695.316 159.243 695.869 158.87 696.31C158.11 697.171 157.206 697.895 156.2 698.45C155.435 698.906 154.782 699.528 154.29 700.27C154.231 700.375 154.185 700.485 154.15 700.6H148.46C147.148 699.937 145.933 699.095 144.85 698.1V698.1ZM111.04 719.92C110.316 719.326 109.787 718.528 109.52 717.63C109.396 717.179 109.435 716.699 109.628 716.273C109.822 715.848 110.159 715.503 110.58 715.3C111.58 714.93 112.58 715.6 113.38 716.3C114.18 717 115.07 717.76 116.11 717.62C115.58 717.139 115.183 716.529 114.957 715.849C114.731 715.169 114.684 714.443 114.82 713.74C114.864 713.448 114.989 713.175 115.18 712.95C115.72 712.37 116.7 712.62 117.35 713.08C119.4 714.52 119.97 717.31 119.99 719.83C120.09 718.906 120.09 717.974 119.99 717.05C119.951 716.585 120.027 716.119 120.21 715.69C120.393 715.261 120.678 714.884 121.04 714.59C121.526 714.323 122.076 714.192 122.63 714.21C123.09 714.145 123.558 714.177 124.004 714.305C124.45 714.432 124.864 714.652 125.22 714.95C125.561 715.414 125.735 715.979 125.715 716.554C125.695 717.129 125.482 717.681 125.11 718.12C124.348 718.979 123.445 719.703 122.44 720.26C121.675 720.72 121.023 721.346 120.53 722.09C120.47 722.19 120.423 722.298 120.39 722.41H114.59C113.301 721.742 112.107 720.904 111.04 719.92V719.92ZM15.1501 675.82C15.1501 675.82 12.9801 678.66 16.1501 682.95C19.3201 687.24 21.9401 690.86 20.8801 693.53C20.8801 693.53 16.0901 685.53 12.1901 685.46C8.29008 685.39 10.8601 680.57 15.1501 675.82V675.82Z" fill="#18A0FB"/>
<path opacity="0.1" d="M15.1499 675.82C14.9626 676.095 14.8145 676.394 14.7099 676.71C10.9099 681.18 8.87991 685.35 12.5399 685.46C15.9399 685.56 20.0299 691.64 20.9999 693.18C20.9692 693.299 20.9325 693.415 20.8899 693.53C20.8899 693.53 16.0999 685.53 12.1999 685.46C8.29991 685.39 10.8599 680.57 15.1499 675.82V675.82Z" fill="black"/>
<path d="M11.1201 679.44C11.1201 680.44 11.2301 681.25 11.3701 681.25C11.5101 681.25 11.6201 680.44 11.6201 679.44C11.6201 678.44 11.4801 678.91 11.3401 678.91C11.2001 678.91 11.1201 678.44 11.1201 679.44Z" fill="#FFD037"/>
<path d="M9.7299 680.64C10.6099 681.12 11.3699 681.4 11.4399 681.28C11.5099 681.16 10.8499 680.68 9.9699 680.2C9.0899 679.72 9.4399 680.07 9.3699 680.2C9.2999 680.33 8.8499 680.16 9.7299 680.64Z" fill="#FFD037"/>
<path d="M26.6201 675.82C26.6201 675.82 28.8001 678.66 25.6201 682.95C22.4401 687.24 19.8301 690.86 20.8901 693.53C20.8901 693.53 25.6801 685.53 29.5801 685.46C33.4801 685.39 30.9101 680.57 26.6201 675.82V675.82Z" fill="#18A0FB"/>
<path opacity="0.1" d="M26.62 675.82C26.8086 676.096 26.9599 676.395 27.07 676.71C30.87 681.18 32.9 685.35 29.24 685.46C25.84 685.56 21.75 691.64 20.77 693.18C20.7994 693.3 20.8396 693.417 20.89 693.53C20.89 693.53 25.68 685.53 29.58 685.46C33.48 685.39 30.91 680.57 26.62 675.82V675.82Z" fill="black"/>
<path d="M30.6599 679.44C30.6599 680.44 30.5499 681.25 30.4099 681.25C30.2699 681.25 30.1599 680.44 30.1599 679.44C30.1599 678.44 30.2999 678.91 30.4399 678.91C30.5799 678.91 30.6599 678.44 30.6599 679.44Z" fill="#FFD037"/>
<path d="M32.05 680.64C31.17 681.12 30.4 681.4 30.34 681.28C30.28 681.16 30.93 680.68 31.81 680.2C32.69 679.72 32.34 680.07 32.4 680.2C32.46 680.33 32.92 680.16 32.05 680.64Z" fill="#FFD037"/>
<path d="M29.9701 693.16C29.9701 693.16 23.9001 692.97 22.0701 691.67C20.2401 690.37 12.7301 688.81 12.2701 690.9C11.8101 692.99 3.15011 701.3 10.0001 701.35C16.8501 701.4 25.9301 700.28 27.7601 699.17C29.5901 698.06 29.9701 693.16 29.9701 693.16V693.16Z" fill="#A8A8A8"/>
<path opacity="0.2" d="M9.88012 700.62C16.7401 700.68 25.8101 699.56 27.6401 698.44C29.0301 697.6 29.5801 694.56 29.7701 693.15H29.9701C29.9701 693.15 29.5901 698.05 27.7601 699.15C25.9301 700.25 16.8601 701.39 10.0001 701.33C8.00012 701.33 7.34012 700.61 7.38012 699.57C7.65012 700.22 8.46012 700.57 9.88012 700.62V700.62Z" fill="black"/>
<path opacity="0.1" d="M33.9401 148.34C45.886 148.34 55.5701 138.656 55.5701 126.71C55.5701 114.764 45.886 105.08 33.9401 105.08C21.9941 105.08 12.3101 114.764 12.3101 126.71C12.3101 138.656 21.9941 148.34 33.9401 148.34Z" fill="#18A0FB"/>
<path opacity="0.1" d="M1074.03 321.19C1085.98 321.19 1095.66 311.506 1095.66 299.56C1095.66 287.614 1085.98 277.93 1074.03 277.93C1062.08 277.93 1052.4 287.614 1052.4 299.56C1052.4 311.506 1062.08 321.19 1074.03 321.19Z" fill="#18A0FB"/>
<path opacity="0.1" d="M685.21 79.65C697.156 79.65 706.84 69.9659 706.84 58.02C706.84 46.0741 697.156 36.39 685.21 36.39C673.264 36.39 663.58 46.0741 663.58 58.02C663.58 69.9659 673.264 79.65 685.21 79.65Z" fill="#18A0FB"/>
<path opacity="0.1" d="M77.1999 282.29C97.2203 282.29 113.45 266.06 113.45 246.04C113.45 226.02 97.2203 209.79 77.1999 209.79C57.1796 209.79 40.95 226.02 40.95 246.04C40.95 266.06 57.1796 282.29 77.1999 282.29Z" fill="#18A0FB"/>
<path d="M430.2 588.64L428.92 587.36C428.783 587.232 428.674 587.077 428.599 586.905C428.525 586.733 428.486 586.547 428.486 586.36C428.486 586.173 428.525 585.987 428.599 585.815C428.674 585.643 428.783 585.488 428.92 585.36L440.15 574.12C440.278 573.983 440.433 573.874 440.605 573.799C440.777 573.725 440.962 573.686 441.15 573.686C441.337 573.686 441.523 573.725 441.695 573.799C441.867 573.874 442.022 573.983 442.15 574.12L453.38 585.35C453.514 585.48 453.621 585.635 453.694 585.807C453.767 585.979 453.804 586.163 453.804 586.35C453.804 586.537 453.767 586.721 453.694 586.893C453.621 587.065 453.514 587.22 453.38 587.35L452.1 588.63C451.97 588.764 451.815 588.871 451.643 588.944C451.471 589.017 451.287 589.055 451.1 589.055C450.913 589.055 450.729 589.017 450.557 588.944C450.385 588.871 450.23 588.764 450.1 588.63L443.46 581.63V598.24C443.461 598.422 443.427 598.603 443.358 598.771C443.289 598.94 443.188 599.093 443.059 599.222C442.931 599.351 442.778 599.454 442.61 599.524C442.442 599.594 442.262 599.63 442.08 599.63H440.23C439.861 599.63 439.508 599.484 439.247 599.223C438.986 598.962 438.84 598.609 438.84 598.24V581.65L432.2 588.65C432.07 588.784 431.914 588.89 431.742 588.962C431.569 589.034 431.384 589.071 431.198 589.07C431.011 589.069 430.827 589.03 430.655 588.956C430.484 588.882 430.329 588.775 430.2 588.64V588.64Z" fill="#F6F7F9"/>
<path d="M441.13 563.91C445.638 563.91 450.044 565.247 453.792 567.751C457.539 570.255 460.46 573.814 462.185 577.979C463.91 582.143 464.362 586.725 463.482 591.146C462.603 595.567 460.432 599.628 457.245 602.815C454.058 606.002 449.997 608.173 445.576 609.052C441.155 609.931 436.573 609.48 432.409 607.755C428.244 606.03 424.685 603.109 422.181 599.361C419.677 595.614 418.34 591.207 418.34 586.7C418.345 580.657 420.748 574.864 425.021 570.591C429.294 566.318 435.087 563.915 441.13 563.91V563.91ZM441.13 560.91C436.029 560.91 431.043 562.423 426.802 565.256C422.561 568.09 419.255 572.118 417.303 576.831C415.351 581.543 414.841 586.729 415.836 591.731C416.831 596.734 419.287 601.329 422.894 604.936C426.501 608.543 431.096 610.999 436.099 611.994C441.102 612.989 446.287 612.479 451 610.527C455.712 608.575 459.74 605.269 462.574 601.028C465.408 596.787 466.92 591.801 466.92 586.7C466.92 579.86 464.203 573.3 459.366 568.464C454.53 563.627 447.97 560.91 441.13 560.91V560.91Z" fill="#F6F7F9"/>
</g>
<defs>
<linearGradient id="paint0_linear_65_2" x1="786.39" y1="568.21" x2="786.39" y2="101.89" gradientUnits="userSpaceOnUse">
<stop stop-color="#808080" stop-opacity="0.25"/>
<stop offset="0.54" stop-color="#808080" stop-opacity="0.12"/>
<stop offset="1" stop-color="#808080" stop-opacity="0.1"/>
</linearGradient>
<linearGradient id="paint1_linear_65_2" x1="1677.32" y1="721.6" x2="1677.32" y2="715.597" gradientUnits="userSpaceOnUse">
<stop stop-color="#808080" stop-opacity="0.25"/>
<stop offset="0.54" stop-color="#808080" stop-opacity="0.12"/>
<stop offset="1" stop-color="#808080" stop-opacity="0.1"/>
</linearGradient>
<linearGradient id="paint2_linear_65_2" x1="73675.8" y1="114922" x2="85681.3" y2="97544.8" gradientUnits="userSpaceOnUse">
<stop stop-color="#808080" stop-opacity="0.25"/>
<stop offset="0.54" stop-color="#808080" stop-opacity="0.12"/>
<stop offset="1" stop-color="#808080" stop-opacity="0.1"/>
</linearGradient>
<linearGradient id="paint3_linear_65_2" x1="104061" y1="91128.2" x2="109963" y2="70930.7" gradientUnits="userSpaceOnUse">
<stop stop-color="#808080" stop-opacity="0.25"/>
<stop offset="0.54" stop-color="#808080" stop-opacity="0.12"/>
<stop offset="1" stop-color="#808080" stop-opacity="0.1"/>
</linearGradient>
<linearGradient id="paint4_linear_65_2" x1="115159" y1="67344.4" x2="116846" y2="46369.9" gradientUnits="userSpaceOnUse">
<stop stop-color="#808080" stop-opacity="0.25"/>
<stop offset="0.54" stop-color="#808080" stop-opacity="0.12"/>
<stop offset="1" stop-color="#808080" stop-opacity="0.1"/>
</linearGradient>
<linearGradient id="paint5_linear_65_2" x1="45428.6" y1="188384" x2="42306.4" y2="119890" gradientUnits="userSpaceOnUse">
<stop stop-color="#808080" stop-opacity="0.25"/>
<stop offset="0.54" stop-color="#808080" stop-opacity="0.12"/>
<stop offset="1" stop-color="#808080" stop-opacity="0.1"/>
</linearGradient>
<linearGradient id="paint6_linear_65_2" x1="140626" y1="124220" x2="156743" y2="74648.1" gradientUnits="userSpaceOnUse">
<stop stop-color="#808080" stop-opacity="0.25"/>
<stop offset="0.54" stop-color="#808080" stop-opacity="0.12"/>
<stop offset="1" stop-color="#808080" stop-opacity="0.1"/>
</linearGradient>
<linearGradient id="paint7_linear_65_2" x1="180095" y1="359048" x2="180095" y2="180843" gradientUnits="userSpaceOnUse">
<stop stop-color="#808080" stop-opacity="0.25"/>
<stop offset="0.54" stop-color="#808080" stop-opacity="0.12"/>
<stop offset="1" stop-color="#808080" stop-opacity="0.1"/>
</linearGradient>
<clipPath id="clip0_65_2">
<rect width="1132.93" height="839.14" fill="white"/>
</clipPath>
</defs>
</svg>
